<mxfile host="app.diagrams.net" agent="Mozilla/5.0 (Macintosh; Intel Mac OS X 10_15_7) AppleWebKit/537.36 (KHTML, like Gecko) Chrome/126.0.0.0 Safari/537.36" version="24.7.6">
  <diagram name="第 1 页" id="iSyehp6QBLwt2Y-3x-lt">
    <mxGraphModel dx="1990" dy="1298" grid="1" gridSize="10" guides="1" tooltips="1" connect="1" arrows="1" fold="1" page="1" pageScale="1" pageWidth="827" pageHeight="1169" math="1" shadow="0">
      <root>
        <mxCell id="0" />
        <mxCell id="1" parent="0" />
        <mxCell id="YxIiZXSBLI5cnnB6mHRg-1" value="" style="rounded=0;whiteSpace=wrap;html=1;fillColor=#dae8fc;strokeColor=#6c8ebf;shadow=1;container=0;" vertex="1" parent="1">
          <mxGeometry x="166" y="400" width="40" height="40" as="geometry" />
        </mxCell>
        <mxCell id="YxIiZXSBLI5cnnB6mHRg-2" value="" style="rounded=0;whiteSpace=wrap;html=1;fillColor=#f8cecc;strokeColor=#b85450;shadow=1;container=0;" vertex="1" parent="1">
          <mxGeometry x="236" y="400" width="40" height="40" as="geometry" />
        </mxCell>
        <mxCell id="YxIiZXSBLI5cnnB6mHRg-3" value="" style="rounded=0;whiteSpace=wrap;html=1;fillColor=#f8cecc;strokeColor=#b85450;shadow=1;container=0;" vertex="1" parent="1">
          <mxGeometry x="236" y="470" width="40" height="40" as="geometry" />
        </mxCell>
        <mxCell id="YxIiZXSBLI5cnnB6mHRg-4" value="" style="rounded=0;whiteSpace=wrap;html=1;fillColor=#d5e8d4;strokeColor=#82b366;shadow=1;container=0;" vertex="1" parent="1">
          <mxGeometry x="166" y="470" width="40" height="40" as="geometry" />
        </mxCell>
        <mxCell id="YxIiZXSBLI5cnnB6mHRg-5" value="" style="rounded=0;whiteSpace=wrap;html=1;fillColor=#f8cecc;strokeColor=#b85450;shadow=1;container=0;" vertex="1" parent="1">
          <mxGeometry x="96" y="470" width="40" height="40" as="geometry" />
        </mxCell>
        <mxCell id="YxIiZXSBLI5cnnB6mHRg-6" value="" style="rounded=0;whiteSpace=wrap;html=1;fillColor=#f8cecc;strokeColor=#b85450;shadow=1;container=0;" vertex="1" parent="1">
          <mxGeometry x="96" y="400" width="40" height="40" as="geometry" />
        </mxCell>
        <mxCell id="YxIiZXSBLI5cnnB6mHRg-7" value="" style="rounded=0;whiteSpace=wrap;html=1;fillColor=#f8cecc;strokeColor=#b85450;shadow=1;container=0;" vertex="1" parent="1">
          <mxGeometry x="96" y="330" width="40" height="40" as="geometry" />
        </mxCell>
        <mxCell id="YxIiZXSBLI5cnnB6mHRg-8" value="" style="rounded=0;whiteSpace=wrap;html=1;fillColor=#d5e8d4;strokeColor=#82b366;shadow=1;container=0;" vertex="1" parent="1">
          <mxGeometry x="166" y="330" width="40" height="40" as="geometry" />
        </mxCell>
        <mxCell id="YxIiZXSBLI5cnnB6mHRg-9" value="" style="rounded=0;whiteSpace=wrap;html=1;fillColor=#f8cecc;strokeColor=#b85450;shadow=1;container=0;" vertex="1" parent="1">
          <mxGeometry x="236" y="330" width="40" height="40" as="geometry" />
        </mxCell>
        <mxCell id="YxIiZXSBLI5cnnB6mHRg-10" value="" style="endArrow=classic;html=1;rounded=0;fillColor=#f8cecc;strokeColor=#b85450;shadow=1;" edge="1" parent="1">
          <mxGeometry width="50" height="50" relative="1" as="geometry">
            <mxPoint x="231" y="420" as="sourcePoint" />
            <mxPoint x="211" y="420" as="targetPoint" />
          </mxGeometry>
        </mxCell>
        <mxCell id="YxIiZXSBLI5cnnB6mHRg-11" value="" style="endArrow=classic;html=1;rounded=0;fillColor=#f8cecc;strokeColor=#b85450;shadow=1;" edge="1" parent="1">
          <mxGeometry width="50" height="50" relative="1" as="geometry">
            <mxPoint x="141" y="420" as="sourcePoint" />
            <mxPoint x="161" y="420" as="targetPoint" />
          </mxGeometry>
        </mxCell>
        <mxCell id="YxIiZXSBLI5cnnB6mHRg-12" value="" style="endArrow=classic;html=1;rounded=0;fillColor=#d5e8d4;strokeColor=#82b366;shadow=1;" edge="1" parent="1">
          <mxGeometry width="50" height="50" relative="1" as="geometry">
            <mxPoint x="186" y="375" as="sourcePoint" />
            <mxPoint x="186" y="395" as="targetPoint" />
          </mxGeometry>
        </mxCell>
        <mxCell id="YxIiZXSBLI5cnnB6mHRg-13" value="" style="endArrow=classic;html=1;rounded=0;fillColor=#d5e8d4;strokeColor=#82b366;shadow=1;" edge="1" parent="1">
          <mxGeometry width="50" height="50" relative="1" as="geometry">
            <mxPoint x="186" y="465" as="sourcePoint" />
            <mxPoint x="186" y="445" as="targetPoint" />
          </mxGeometry>
        </mxCell>
        <mxCell id="YxIiZXSBLI5cnnB6mHRg-14" value="" style="endArrow=classic;html=1;rounded=0;fillColor=#f8cecc;strokeColor=#b85450;shadow=1;" edge="1" parent="1">
          <mxGeometry width="50" height="50" relative="1" as="geometry">
            <mxPoint x="141" y="375" as="sourcePoint" />
            <mxPoint x="161" y="395" as="targetPoint" />
          </mxGeometry>
        </mxCell>
        <mxCell id="YxIiZXSBLI5cnnB6mHRg-15" value="" style="endArrow=classic;html=1;rounded=0;fillColor=#f8cecc;strokeColor=#b85450;shadow=1;" edge="1" parent="1">
          <mxGeometry width="50" height="50" relative="1" as="geometry">
            <mxPoint x="141" y="465" as="sourcePoint" />
            <mxPoint x="161" y="445" as="targetPoint" />
          </mxGeometry>
        </mxCell>
        <mxCell id="YxIiZXSBLI5cnnB6mHRg-16" value="" style="endArrow=classic;html=1;rounded=0;fillColor=#f8cecc;strokeColor=#b85450;shadow=1;" edge="1" parent="1">
          <mxGeometry width="50" height="50" relative="1" as="geometry">
            <mxPoint x="231" y="375" as="sourcePoint" />
            <mxPoint x="211" y="395" as="targetPoint" />
          </mxGeometry>
        </mxCell>
        <mxCell id="YxIiZXSBLI5cnnB6mHRg-17" value="" style="endArrow=classic;html=1;rounded=0;fillColor=#f8cecc;strokeColor=#b85450;shadow=1;" edge="1" parent="1">
          <mxGeometry width="50" height="50" relative="1" as="geometry">
            <mxPoint x="231" y="465" as="sourcePoint" />
            <mxPoint x="211" y="445" as="targetPoint" />
          </mxGeometry>
        </mxCell>
        <mxCell id="YxIiZXSBLI5cnnB6mHRg-18" value="&lt;div style=&quot;text-align: justify;&quot;&gt;&lt;br&gt;&lt;/div&gt;" style="text;html=1;strokeColor=none;fillColor=none;align=center;verticalAlign=middle;whiteSpace=wrap;rounded=0;" vertex="1" parent="1">
          <mxGeometry x="96" y="400" width="40" height="40" as="geometry" />
        </mxCell>
        <mxCell id="YxIiZXSBLI5cnnB6mHRg-19" value="&lt;font style=&quot;font-size: 20px;&quot;&gt;$$\alpha_3$$&lt;/font&gt;" style="text;html=1;strokeColor=none;fillColor=none;align=center;verticalAlign=middle;whiteSpace=wrap;rounded=0;" vertex="1" parent="1">
          <mxGeometry x="96" y="330" width="40" height="40" as="geometry" />
        </mxCell>
        <mxCell id="YxIiZXSBLI5cnnB6mHRg-20" value="" style="endArrow=classic;html=1;rounded=0;" edge="1" parent="1">
          <mxGeometry width="50" height="50" relative="1" as="geometry">
            <mxPoint x="301" y="420" as="sourcePoint" />
            <mxPoint x="371" y="419.5" as="targetPoint" />
          </mxGeometry>
        </mxCell>
        <mxCell id="YxIiZXSBLI5cnnB6mHRg-21" value="&lt;font style=&quot;font-size: 20px;&quot;&gt;$$\alpha_2$$&lt;/font&gt;" style="text;html=1;strokeColor=none;fillColor=none;align=center;verticalAlign=middle;whiteSpace=wrap;rounded=0;" vertex="1" parent="1">
          <mxGeometry x="166" y="330" width="40" height="40" as="geometry" />
        </mxCell>
        <mxCell id="YxIiZXSBLI5cnnB6mHRg-22" value="&lt;font style=&quot;font-size: 20px;&quot;&gt;$$\alpha_2$$&lt;/font&gt;" style="text;html=1;strokeColor=none;fillColor=none;align=center;verticalAlign=middle;whiteSpace=wrap;rounded=0;" vertex="1" parent="1">
          <mxGeometry x="237" y="400" width="40" height="40" as="geometry" />
        </mxCell>
        <mxCell id="YxIiZXSBLI5cnnB6mHRg-23" value="&lt;font style=&quot;font-size: 20px;&quot;&gt;$$\alpha_2$$&lt;/font&gt;" style="text;html=1;strokeColor=none;fillColor=none;align=center;verticalAlign=middle;whiteSpace=wrap;rounded=0;" vertex="1" parent="1">
          <mxGeometry x="96" y="400" width="40" height="40" as="geometry" />
        </mxCell>
        <mxCell id="YxIiZXSBLI5cnnB6mHRg-24" value="&lt;font style=&quot;font-size: 20px;&quot;&gt;$$\alpha_2$$&lt;/font&gt;" style="text;html=1;strokeColor=none;fillColor=none;align=center;verticalAlign=middle;whiteSpace=wrap;rounded=0;" vertex="1" parent="1">
          <mxGeometry x="166" y="470" width="40" height="40" as="geometry" />
        </mxCell>
        <mxCell id="YxIiZXSBLI5cnnB6mHRg-25" value="&lt;font style=&quot;font-size: 20px;&quot;&gt;$$\alpha_3$$&lt;/font&gt;" style="text;html=1;strokeColor=none;fillColor=none;align=center;verticalAlign=middle;whiteSpace=wrap;rounded=0;" vertex="1" parent="1">
          <mxGeometry x="237" y="330" width="40" height="40" as="geometry" />
        </mxCell>
        <mxCell id="YxIiZXSBLI5cnnB6mHRg-26" value="&lt;font style=&quot;font-size: 20px;&quot;&gt;$$\alpha_3$$&lt;/font&gt;" style="text;html=1;strokeColor=none;fillColor=none;align=center;verticalAlign=middle;whiteSpace=wrap;rounded=0;" vertex="1" parent="1">
          <mxGeometry x="96" y="470" width="40" height="40" as="geometry" />
        </mxCell>
        <mxCell id="YxIiZXSBLI5cnnB6mHRg-27" value="&lt;font style=&quot;font-size: 20px;&quot;&gt;$$\alpha_3$$&lt;/font&gt;" style="text;html=1;strokeColor=none;fillColor=none;align=center;verticalAlign=middle;whiteSpace=wrap;rounded=0;" vertex="1" parent="1">
          <mxGeometry x="237" y="470" width="40" height="40" as="geometry" />
        </mxCell>
        <mxCell id="YxIiZXSBLI5cnnB6mHRg-28" value="&lt;font style=&quot;font-size: 20px;&quot;&gt;$$+$$&lt;/font&gt;" style="text;html=1;strokeColor=none;fillColor=none;align=center;verticalAlign=middle;whiteSpace=wrap;rounded=0;" vertex="1" parent="1">
          <mxGeometry x="591" y="400" width="40" height="40" as="geometry" />
        </mxCell>
        <mxCell id="YxIiZXSBLI5cnnB6mHRg-29" value="" style="rounded=0;whiteSpace=wrap;html=1;fillColor=#dae8fc;strokeColor=#6c8ebf;shadow=1;container=0;" vertex="1" parent="1">
          <mxGeometry x="707" y="400" width="40" height="40" as="geometry" />
        </mxCell>
        <mxCell id="YxIiZXSBLI5cnnB6mHRg-30" value="" style="rounded=0;whiteSpace=wrap;html=1;fillColor=#f5f5f5;strokeColor=#666666;shadow=1;container=0;fontColor=#333333;" vertex="1" parent="1">
          <mxGeometry x="777" y="470" width="40" height="40" as="geometry" />
        </mxCell>
        <mxCell id="YxIiZXSBLI5cnnB6mHRg-31" value="" style="rounded=0;whiteSpace=wrap;html=1;fillColor=#f5f5f5;strokeColor=#666666;shadow=1;container=0;fontColor=#333333;" vertex="1" parent="1">
          <mxGeometry x="707" y="470" width="40" height="40" as="geometry" />
        </mxCell>
        <mxCell id="YxIiZXSBLI5cnnB6mHRg-32" value="" style="rounded=0;whiteSpace=wrap;html=1;fillColor=#f5f5f5;strokeColor=#666666;shadow=1;container=0;fontColor=#333333;" vertex="1" parent="1">
          <mxGeometry x="637" y="470" width="40" height="40" as="geometry" />
        </mxCell>
        <mxCell id="YxIiZXSBLI5cnnB6mHRg-33" value="" style="rounded=0;whiteSpace=wrap;html=1;fillColor=#f5f5f5;strokeColor=#666666;shadow=1;container=0;fontColor=#333333;" vertex="1" parent="1">
          <mxGeometry x="637" y="330" width="40" height="40" as="geometry" />
        </mxCell>
        <mxCell id="YxIiZXSBLI5cnnB6mHRg-34" value="" style="rounded=0;whiteSpace=wrap;html=1;fillColor=#f5f5f5;strokeColor=#666666;shadow=1;container=0;fontColor=#333333;" vertex="1" parent="1">
          <mxGeometry x="707" y="330" width="40" height="40" as="geometry" />
        </mxCell>
        <mxCell id="YxIiZXSBLI5cnnB6mHRg-35" value="" style="rounded=0;whiteSpace=wrap;html=1;fillColor=#f5f5f5;strokeColor=#666666;shadow=1;container=0;fontColor=#333333;" vertex="1" parent="1">
          <mxGeometry x="776" y="330" width="40" height="40" as="geometry" />
        </mxCell>
        <mxCell id="YxIiZXSBLI5cnnB6mHRg-36" value="" style="rounded=0;whiteSpace=wrap;html=1;fillColor=#f5f5f5;strokeColor=#666666;shadow=1;container=0;fontColor=#333333;" vertex="1" parent="1">
          <mxGeometry x="637" y="400" width="40" height="40" as="geometry" />
        </mxCell>
        <mxCell id="YxIiZXSBLI5cnnB6mHRg-37" value="" style="rounded=0;whiteSpace=wrap;html=1;fillColor=#f5f5f5;strokeColor=#666666;shadow=1;container=0;fontColor=#333333;" vertex="1" parent="1">
          <mxGeometry x="777" y="400" width="40" height="40" as="geometry" />
        </mxCell>
        <mxCell id="YxIiZXSBLI5cnnB6mHRg-38" value="&lt;font style=&quot;font-size: 20px;&quot;&gt;$$\alpha_1$$&lt;/font&gt;" style="text;html=1;strokeColor=none;fillColor=none;align=center;verticalAlign=middle;whiteSpace=wrap;rounded=0;" vertex="1" parent="1">
          <mxGeometry x="166" y="400" width="40" height="40" as="geometry" />
        </mxCell>
        <mxCell id="YxIiZXSBLI5cnnB6mHRg-39" value="" style="rounded=0;whiteSpace=wrap;html=1;fillColor=#dae8fc;strokeColor=#6c8ebf;shadow=1;container=0;" vertex="1" parent="1">
          <mxGeometry x="471" y="400" width="40" height="40" as="geometry" />
        </mxCell>
        <mxCell id="YxIiZXSBLI5cnnB6mHRg-40" value="" style="rounded=0;whiteSpace=wrap;html=1;fillColor=#f8cecc;strokeColor=#b85450;shadow=1;container=0;" vertex="1" parent="1">
          <mxGeometry x="541" y="400" width="40" height="40" as="geometry" />
        </mxCell>
        <mxCell id="YxIiZXSBLI5cnnB6mHRg-41" value="" style="rounded=0;whiteSpace=wrap;html=1;fillColor=#d5e8d4;strokeColor=#82b366;shadow=1;container=0;" vertex="1" parent="1">
          <mxGeometry x="541" y="470" width="40" height="40" as="geometry" />
        </mxCell>
        <mxCell id="YxIiZXSBLI5cnnB6mHRg-42" value="" style="rounded=0;whiteSpace=wrap;html=1;fillColor=#d5e8d4;strokeColor=#82b366;shadow=1;container=0;" vertex="1" parent="1">
          <mxGeometry x="471" y="470" width="40" height="40" as="geometry" />
        </mxCell>
        <mxCell id="YxIiZXSBLI5cnnB6mHRg-43" value="" style="rounded=0;whiteSpace=wrap;html=1;fillColor=#f8cecc;strokeColor=#b85450;shadow=1;container=0;" vertex="1" parent="1">
          <mxGeometry x="401" y="470" width="40" height="40" as="geometry" />
        </mxCell>
        <mxCell id="YxIiZXSBLI5cnnB6mHRg-44" value="" style="rounded=0;whiteSpace=wrap;html=1;fillColor=#f8cecc;strokeColor=#b85450;shadow=1;container=0;" vertex="1" parent="1">
          <mxGeometry x="401" y="400" width="40" height="40" as="geometry" />
        </mxCell>
        <mxCell id="YxIiZXSBLI5cnnB6mHRg-45" value="" style="rounded=0;whiteSpace=wrap;html=1;fillColor=#f8cecc;strokeColor=#b85450;shadow=1;container=0;" vertex="1" parent="1">
          <mxGeometry x="401" y="330" width="40" height="40" as="geometry" />
        </mxCell>
        <mxCell id="YxIiZXSBLI5cnnB6mHRg-46" value="" style="rounded=0;whiteSpace=wrap;html=1;fillColor=#d5e8d4;strokeColor=#82b366;shadow=1;container=0;" vertex="1" parent="1">
          <mxGeometry x="471" y="330" width="40" height="40" as="geometry" />
        </mxCell>
        <mxCell id="YxIiZXSBLI5cnnB6mHRg-47" value="" style="rounded=0;whiteSpace=wrap;html=1;fillColor=#d5e8d4;strokeColor=#82b366;shadow=1;container=0;" vertex="1" parent="1">
          <mxGeometry x="541" y="330" width="40" height="40" as="geometry" />
        </mxCell>
        <mxCell id="YxIiZXSBLI5cnnB6mHRg-48" value="" style="endArrow=classic;html=1;rounded=0;fillColor=#f8cecc;strokeColor=#b85450;shadow=1;" edge="1" parent="1">
          <mxGeometry width="50" height="50" relative="1" as="geometry">
            <mxPoint x="536" y="420" as="sourcePoint" />
            <mxPoint x="516" y="420" as="targetPoint" />
          </mxGeometry>
        </mxCell>
        <mxCell id="YxIiZXSBLI5cnnB6mHRg-49" value="" style="endArrow=classic;html=1;rounded=0;fillColor=#f8cecc;strokeColor=#b85450;shadow=1;" edge="1" parent="1">
          <mxGeometry width="50" height="50" relative="1" as="geometry">
            <mxPoint x="446" y="420" as="sourcePoint" />
            <mxPoint x="466" y="420" as="targetPoint" />
          </mxGeometry>
        </mxCell>
        <mxCell id="YxIiZXSBLI5cnnB6mHRg-50" value="" style="endArrow=classic;html=1;rounded=0;fillColor=#d5e8d4;strokeColor=#82b366;shadow=1;" edge="1" parent="1">
          <mxGeometry width="50" height="50" relative="1" as="geometry">
            <mxPoint x="491" y="375" as="sourcePoint" />
            <mxPoint x="491" y="395" as="targetPoint" />
          </mxGeometry>
        </mxCell>
        <mxCell id="YxIiZXSBLI5cnnB6mHRg-51" value="" style="endArrow=classic;html=1;rounded=0;fillColor=#d5e8d4;strokeColor=#82b366;shadow=1;" edge="1" parent="1">
          <mxGeometry width="50" height="50" relative="1" as="geometry">
            <mxPoint x="491" y="465" as="sourcePoint" />
            <mxPoint x="491" y="445" as="targetPoint" />
          </mxGeometry>
        </mxCell>
        <mxCell id="YxIiZXSBLI5cnnB6mHRg-52" value="&lt;div style=&quot;text-align: justify;&quot;&gt;&lt;br&gt;&lt;/div&gt;" style="text;html=1;strokeColor=none;fillColor=none;align=center;verticalAlign=middle;whiteSpace=wrap;rounded=0;" vertex="1" parent="1">
          <mxGeometry x="401" y="400" width="40" height="40" as="geometry" />
        </mxCell>
        <mxCell id="YxIiZXSBLI5cnnB6mHRg-53" value="&lt;font style=&quot;font-size: 20px;&quot;&gt;$$\alpha_3$$&lt;/font&gt;" style="text;html=1;strokeColor=#82b366;fillColor=#d5e8d4;align=center;verticalAlign=middle;whiteSpace=wrap;rounded=0;" vertex="1" parent="1">
          <mxGeometry x="401" y="330" width="40" height="40" as="geometry" />
        </mxCell>
        <mxCell id="YxIiZXSBLI5cnnB6mHRg-54" value="&lt;font style=&quot;font-size: 20px;&quot;&gt;$$\alpha_2$$&lt;/font&gt;" style="text;html=1;strokeColor=none;fillColor=none;align=center;verticalAlign=middle;whiteSpace=wrap;rounded=0;" vertex="1" parent="1">
          <mxGeometry x="471" y="330" width="40" height="40" as="geometry" />
        </mxCell>
        <mxCell id="YxIiZXSBLI5cnnB6mHRg-55" value="&lt;font style=&quot;font-size: 20px;&quot;&gt;$$\alpha_2$$&lt;/font&gt;" style="text;html=1;strokeColor=none;fillColor=none;align=center;verticalAlign=middle;whiteSpace=wrap;rounded=0;" vertex="1" parent="1">
          <mxGeometry x="542" y="400" width="40" height="40" as="geometry" />
        </mxCell>
        <mxCell id="YxIiZXSBLI5cnnB6mHRg-56" value="&lt;font style=&quot;font-size: 20px;&quot;&gt;$$\alpha_2$$&lt;/font&gt;" style="text;html=1;strokeColor=none;fillColor=none;align=center;verticalAlign=middle;whiteSpace=wrap;rounded=0;" vertex="1" parent="1">
          <mxGeometry x="401" y="400" width="40" height="40" as="geometry" />
        </mxCell>
        <mxCell id="YxIiZXSBLI5cnnB6mHRg-57" value="&lt;font style=&quot;font-size: 20px;&quot;&gt;$$\alpha_2$$&lt;/font&gt;" style="text;html=1;strokeColor=none;fillColor=none;align=center;verticalAlign=middle;whiteSpace=wrap;rounded=0;" vertex="1" parent="1">
          <mxGeometry x="471" y="470" width="40" height="40" as="geometry" />
        </mxCell>
        <mxCell id="YxIiZXSBLI5cnnB6mHRg-58" value="&lt;font style=&quot;font-size: 20px;&quot;&gt;$$\alpha_3$$&lt;/font&gt;" style="text;html=1;strokeColor=none;fillColor=none;align=center;verticalAlign=middle;whiteSpace=wrap;rounded=0;" vertex="1" parent="1">
          <mxGeometry x="540" y="330" width="40" height="40" as="geometry" />
        </mxCell>
        <mxCell id="YxIiZXSBLI5cnnB6mHRg-59" value="&lt;font style=&quot;font-size: 20px;&quot;&gt;$$\alpha_3$$&lt;/font&gt;" style="text;html=1;strokeColor=#82b366;fillColor=#d5e8d4;align=center;verticalAlign=middle;whiteSpace=wrap;rounded=0;" vertex="1" parent="1">
          <mxGeometry x="401" y="470" width="40" height="40" as="geometry" />
        </mxCell>
        <mxCell id="YxIiZXSBLI5cnnB6mHRg-60" value="&lt;font style=&quot;font-size: 20px;&quot;&gt;$$\alpha_3$$&lt;/font&gt;" style="text;html=1;strokeColor=none;fillColor=none;align=center;verticalAlign=middle;whiteSpace=wrap;rounded=0;" vertex="1" parent="1">
          <mxGeometry x="541" y="470" width="40" height="40" as="geometry" />
        </mxCell>
        <mxCell id="YxIiZXSBLI5cnnB6mHRg-61" value="&lt;font style=&quot;font-size: 20px;&quot;&gt;$$\beta_1$$&lt;/font&gt;" style="text;html=1;strokeColor=none;fillColor=none;align=center;verticalAlign=middle;whiteSpace=wrap;rounded=0;" vertex="1" parent="1">
          <mxGeometry x="471" y="400" width="40" height="40" as="geometry" />
        </mxCell>
        <mxCell id="YxIiZXSBLI5cnnB6mHRg-62" value="&lt;font style=&quot;font-size: 20px;&quot;&gt;$$\beta_2$$&lt;/font&gt;" style="text;html=1;strokeColor=none;fillColor=none;align=center;verticalAlign=middle;whiteSpace=wrap;rounded=0;" vertex="1" parent="1">
          <mxGeometry x="707" y="400" width="40" height="40" as="geometry" />
        </mxCell>
        <mxCell id="YxIiZXSBLI5cnnB6mHRg-63" value="" style="endArrow=classic;html=1;rounded=0;fillColor=#d5e8d4;strokeColor=#82b366;shadow=1;" edge="1" parent="1">
          <mxGeometry width="50" height="50" relative="1" as="geometry">
            <mxPoint x="561" y="375" as="sourcePoint" />
            <mxPoint x="561" y="395" as="targetPoint" />
          </mxGeometry>
        </mxCell>
        <mxCell id="YxIiZXSBLI5cnnB6mHRg-64" value="" style="endArrow=classic;html=1;rounded=0;fillColor=#d5e8d4;strokeColor=#82b366;shadow=1;" edge="1" parent="1">
          <mxGeometry width="50" height="50" relative="1" as="geometry">
            <mxPoint x="561" y="465" as="sourcePoint" />
            <mxPoint x="561" y="445" as="targetPoint" />
          </mxGeometry>
        </mxCell>
        <mxCell id="YxIiZXSBLI5cnnB6mHRg-65" value="" style="endArrow=classic;html=1;rounded=0;dashed=1;" edge="1" parent="1">
          <mxGeometry width="50" height="50" relative="1" as="geometry">
            <mxPoint x="491" y="530.5" as="sourcePoint" />
            <mxPoint x="491" y="570" as="targetPoint" />
          </mxGeometry>
        </mxCell>
        <mxCell id="YxIiZXSBLI5cnnB6mHRg-66" value="" style="rounded=0;whiteSpace=wrap;html=1;fillColor=#dae8fc;strokeColor=#6c8ebf;shadow=1;container=0;" vertex="1" parent="1">
          <mxGeometry x="472" y="587.5" width="40" height="40" as="geometry" />
        </mxCell>
        <mxCell id="YxIiZXSBLI5cnnB6mHRg-67" value="" style="rounded=0;whiteSpace=wrap;html=1;fillColor=#f8cecc;strokeColor=#b85450;shadow=1;container=0;" vertex="1" parent="1">
          <mxGeometry x="542" y="587.5" width="40" height="40" as="geometry" />
        </mxCell>
        <mxCell id="YxIiZXSBLI5cnnB6mHRg-68" value="" style="rounded=0;whiteSpace=wrap;html=1;fillColor=#f8cecc;strokeColor=#b85450;shadow=1;container=0;" vertex="1" parent="1">
          <mxGeometry x="402" y="587.5" width="40" height="40" as="geometry" />
        </mxCell>
        <mxCell id="YxIiZXSBLI5cnnB6mHRg-69" value="" style="endArrow=classic;html=1;rounded=0;fillColor=#f8cecc;strokeColor=#b85450;shadow=1;" edge="1" parent="1">
          <mxGeometry width="50" height="50" relative="1" as="geometry">
            <mxPoint x="537" y="607.5" as="sourcePoint" />
            <mxPoint x="517" y="607.5" as="targetPoint" />
          </mxGeometry>
        </mxCell>
        <mxCell id="YxIiZXSBLI5cnnB6mHRg-70" value="" style="endArrow=classic;html=1;rounded=0;fillColor=#f8cecc;strokeColor=#b85450;shadow=1;" edge="1" parent="1">
          <mxGeometry width="50" height="50" relative="1" as="geometry">
            <mxPoint x="447" y="607.5" as="sourcePoint" />
            <mxPoint x="467" y="607.5" as="targetPoint" />
          </mxGeometry>
        </mxCell>
        <mxCell id="YxIiZXSBLI5cnnB6mHRg-71" value="&lt;font style=&quot;font-size: 20px;&quot;&gt;$$\beta_1$$&lt;/font&gt;" style="text;html=1;strokeColor=none;fillColor=none;align=center;verticalAlign=middle;whiteSpace=wrap;rounded=0;container=0;" vertex="1" parent="1">
          <mxGeometry x="472" y="587.5" width="40" height="40" as="geometry" />
        </mxCell>
        <mxCell id="YxIiZXSBLI5cnnB6mHRg-72" value="&lt;font style=&quot;font-size: 20px;&quot;&gt;$$\alpha_2$$&lt;/font&gt;" style="text;html=1;strokeColor=none;fillColor=none;align=center;verticalAlign=middle;whiteSpace=wrap;rounded=0;container=0;" vertex="1" parent="1">
          <mxGeometry x="402" y="587.5" width="40" height="40" as="geometry" />
        </mxCell>
        <mxCell id="YxIiZXSBLI5cnnB6mHRg-73" value="&lt;font style=&quot;font-size: 20px;&quot;&gt;$$\alpha_2$$&lt;/font&gt;" style="text;html=1;strokeColor=none;fillColor=none;align=center;verticalAlign=middle;whiteSpace=wrap;rounded=0;container=0;" vertex="1" parent="1">
          <mxGeometry x="542" y="587.5" width="40" height="40" as="geometry" />
        </mxCell>
        <mxCell id="YxIiZXSBLI5cnnB6mHRg-74" value="" style="rounded=0;whiteSpace=wrap;html=1;fillColor=none;dashed=1;strokeColor=#82b366;strokeWidth=2;container=0;" vertex="1" parent="1">
          <mxGeometry x="395.5" y="322.5" width="51" height="195" as="geometry" />
        </mxCell>
        <mxCell id="YxIiZXSBLI5cnnB6mHRg-75" value="" style="rounded=0;whiteSpace=wrap;html=1;fillColor=none;dashed=1;strokeColor=#82b366;strokeWidth=2;container=0;" vertex="1" parent="1">
          <mxGeometry x="465.5" y="322" width="51" height="195" as="geometry" />
        </mxCell>
        <mxCell id="YxIiZXSBLI5cnnB6mHRg-76" value="" style="rounded=0;whiteSpace=wrap;html=1;fillColor=none;dashed=1;strokeColor=#82b366;strokeWidth=2;container=0;" vertex="1" parent="1">
          <mxGeometry x="535.5" y="322.5" width="51" height="195" as="geometry" />
        </mxCell>
        <mxCell id="YxIiZXSBLI5cnnB6mHRg-77" value="" style="endArrow=none;dashed=1;html=1;rounded=0;strokeWidth=2;" edge="1" parent="1">
          <mxGeometry width="50" height="50" relative="1" as="geometry">
            <mxPoint x="866" y="660" as="sourcePoint" />
            <mxPoint x="866" y="320" as="targetPoint" />
          </mxGeometry>
        </mxCell>
        <mxCell id="YxIiZXSBLI5cnnB6mHRg-78" value="" style="group" vertex="1" connectable="0" parent="1">
          <mxGeometry x="610" y="539" width="220" height="111" as="geometry" />
        </mxCell>
        <mxCell id="YxIiZXSBLI5cnnB6mHRg-79" value="&lt;font style=&quot;font-size: 20px;&quot;&gt;$$\beta_1=\frac{\alpha_2}{\alpha_3}&amp;nbsp; \alpha_2$$&lt;/font&gt;" style="text;html=1;strokeColor=none;fillColor=none;align=center;verticalAlign=middle;whiteSpace=wrap;rounded=0;container=0;fontFamily=Courier New;fontSize=20;" vertex="1" parent="YxIiZXSBLI5cnnB6mHRg-78">
          <mxGeometry y="10.090909090909092" width="220" height="40.36363636363637" as="geometry" />
        </mxCell>
        <mxCell id="YxIiZXSBLI5cnnB6mHRg-80" value="&lt;font style=&quot;font-size: 20px;&quot;&gt;$$\beta_2=\alpha_1-\frac{\alpha_2}{\alpha_3}&amp;nbsp; \alpha_2$$&lt;/font&gt;" style="text;html=1;strokeColor=none;fillColor=none;align=center;verticalAlign=middle;whiteSpace=wrap;rounded=0;container=0;fontFamily=Courier New;fontSize=20;" vertex="1" parent="YxIiZXSBLI5cnnB6mHRg-78">
          <mxGeometry x="36" y="60.54545454545455" width="170" height="40.36363636363637" as="geometry" />
        </mxCell>
        <mxCell id="YxIiZXSBLI5cnnB6mHRg-81" value="" style="rounded=0;whiteSpace=wrap;html=1;fillColor=none;container=0;fontFamily=Courier New;fontSize=20;" vertex="1" parent="YxIiZXSBLI5cnnB6mHRg-78">
          <mxGeometry x="36" width="170" height="111.00000000000001" as="geometry" />
        </mxCell>
        <mxCell id="YxIiZXSBLI5cnnB6mHRg-82" value="" style="endArrow=classic;html=1;rounded=0;" edge="1" parent="1">
          <mxGeometry width="50" height="50" relative="1" as="geometry">
            <mxPoint x="1246" y="435" as="sourcePoint" />
            <mxPoint x="1246" y="475" as="targetPoint" />
          </mxGeometry>
        </mxCell>
        <mxCell id="YxIiZXSBLI5cnnB6mHRg-83" value="" style="group" vertex="1" connectable="0" parent="1">
          <mxGeometry x="331" y="360" width="90" height="120" as="geometry" />
        </mxCell>
        <mxCell id="YxIiZXSBLI5cnnB6mHRg-84" value="" style="group" vertex="1" connectable="0" parent="YxIiZXSBLI5cnnB6mHRg-83">
          <mxGeometry y="80" width="40" height="40" as="geometry" />
        </mxCell>
        <mxCell id="YxIiZXSBLI5cnnB6mHRg-85" value="" style="edgeStyle=none;orthogonalLoop=1;jettySize=auto;html=1;curved=1;endArrow=none;endFill=0;startArrow=classic;startFill=1;dashed=1;" edge="1" parent="YxIiZXSBLI5cnnB6mHRg-84">
          <mxGeometry width="80" relative="1" as="geometry">
            <mxPoint x="60" y="-10" as="sourcePoint" />
            <mxPoint x="60" y="50" as="targetPoint" />
            <Array as="points">
              <mxPoint x="20" y="20" />
            </Array>
          </mxGeometry>
        </mxCell>
        <mxCell id="YxIiZXSBLI5cnnB6mHRg-86" value="&lt;font style=&quot;font-size: 20px;&quot;&gt;$$\frac{\alpha_3}{\alpha_2}$$&lt;/font&gt;" style="text;html=1;strokeColor=none;fillColor=none;align=center;verticalAlign=middle;whiteSpace=wrap;rounded=0;" vertex="1" parent="YxIiZXSBLI5cnnB6mHRg-84">
          <mxGeometry width="40" height="40" as="geometry" />
        </mxCell>
        <mxCell id="YxIiZXSBLI5cnnB6mHRg-87" value="" style="edgeStyle=none;orthogonalLoop=1;jettySize=auto;html=1;curved=1;dashed=1;" edge="1" parent="YxIiZXSBLI5cnnB6mHRg-83">
          <mxGeometry width="80" relative="1" as="geometry">
            <mxPoint x="60" y="-10" as="sourcePoint" />
            <mxPoint x="60" y="50" as="targetPoint" />
            <Array as="points">
              <mxPoint x="20" y="20" />
            </Array>
          </mxGeometry>
        </mxCell>
        <mxCell id="YxIiZXSBLI5cnnB6mHRg-88" value="&lt;font style=&quot;font-size: 20px;&quot;&gt;$$\frac{\alpha_3}{\alpha_2}$$&lt;/font&gt;" style="text;html=1;strokeColor=none;fillColor=none;align=center;verticalAlign=middle;whiteSpace=wrap;rounded=0;container=0;" vertex="1" parent="YxIiZXSBLI5cnnB6mHRg-83">
          <mxGeometry width="40" height="40" as="geometry" />
        </mxCell>
        <mxCell id="YxIiZXSBLI5cnnB6mHRg-89" value="" style="endArrow=classic;html=1;rounded=0;fillColor=#d5e8d4;strokeColor=#82b366;shadow=1;" edge="1" parent="YxIiZXSBLI5cnnB6mHRg-83">
          <mxGeometry width="50" height="50" relative="1" as="geometry">
            <mxPoint x="90" y="15" as="sourcePoint" />
            <mxPoint x="90" y="35" as="targetPoint" />
          </mxGeometry>
        </mxCell>
        <mxCell id="YxIiZXSBLI5cnnB6mHRg-90" value="" style="endArrow=classic;html=1;rounded=0;fillColor=#d5e8d4;strokeColor=#82b366;shadow=1;" edge="1" parent="YxIiZXSBLI5cnnB6mHRg-83">
          <mxGeometry width="50" height="50" relative="1" as="geometry">
            <mxPoint x="90" y="105" as="sourcePoint" />
            <mxPoint x="90" y="85" as="targetPoint" />
          </mxGeometry>
        </mxCell>
        <mxCell id="YxIiZXSBLI5cnnB6mHRg-91" value="" style="shape=curlyBracket;whiteSpace=wrap;html=1;rounded=1;flipH=1;labelPosition=right;verticalLabelPosition=middle;align=left;verticalAlign=middle;" vertex="1" parent="1">
          <mxGeometry x="1596" y="330" width="20" height="100" as="geometry" />
        </mxCell>
        <mxCell id="YxIiZXSBLI5cnnB6mHRg-92" value="&lt;font style=&quot;font-size: 20px;&quot;&gt;Naive&lt;/font&gt;" style="text;html=1;strokeColor=none;fillColor=none;align=center;verticalAlign=middle;whiteSpace=wrap;rounded=0;fontFamily=Courier New;fontSize=20;" vertex="1" parent="1">
          <mxGeometry x="1616" y="365" width="80" height="30" as="geometry" />
        </mxCell>
        <mxCell id="YxIiZXSBLI5cnnB6mHRg-93" value="" style="shape=curlyBracket;whiteSpace=wrap;html=1;rounded=1;flipH=1;labelPosition=right;verticalLabelPosition=middle;align=left;verticalAlign=middle;" vertex="1" parent="1">
          <mxGeometry x="1596" y="480" width="20" height="170" as="geometry" />
        </mxCell>
        <mxCell id="YxIiZXSBLI5cnnB6mHRg-94" value="&lt;font style=&quot;font-size: 20px;&quot;&gt;Optimized&lt;/font&gt;" style="text;html=1;strokeColor=none;fillColor=none;align=center;verticalAlign=middle;whiteSpace=wrap;rounded=0;fontFamily=Courier New;fontSize=20;" vertex="1" parent="1">
          <mxGeometry x="1616" y="550" width="130" height="30" as="geometry" />
        </mxCell>
        <mxCell id="YxIiZXSBLI5cnnB6mHRg-95" value="" style="group" vertex="1" connectable="0" parent="1">
          <mxGeometry x="907" y="350" width="659" height="80" as="geometry" />
        </mxCell>
        <mxCell id="YxIiZXSBLI5cnnB6mHRg-96" value="&lt;font style=&quot;font-size: 20px;&quot; face=&quot;Courier New&quot;&gt;\(\alpha_1\times\)(A[x][y])+&amp;nbsp;&lt;br style=&quot;font-size: 20px;&quot;&gt;\(\alpha_2\times\)(A[x-1][y]+A[x+1][y]+A[x][y-1]+A[x][y+1])+&amp;nbsp;&lt;br style=&quot;font-size: 20px;&quot;&gt;\(\alpha_3\times\)(A[x-1][y-1]+A[x-1][y+1]+A[x+1][y-1]+A[x+1][y+1])&lt;/font&gt;" style="text;html=1;strokeColor=none;fillColor=none;align=left;verticalAlign=middle;whiteSpace=wrap;rounded=0;fontSize=20;" vertex="1" parent="YxIiZXSBLI5cnnB6mHRg-95">
          <mxGeometry x="15" width="640" height="80" as="geometry" />
        </mxCell>
        <mxCell id="YxIiZXSBLI5cnnB6mHRg-97" value="" style="rounded=0;whiteSpace=wrap;html=1;fillColor=none;strokeColor=#b85450;" vertex="1" parent="YxIiZXSBLI5cnnB6mHRg-95">
          <mxGeometry width="659" height="80" as="geometry" />
        </mxCell>
        <mxCell id="YxIiZXSBLI5cnnB6mHRg-98" value="&lt;font style=&quot;font-size: 20px;&quot;&gt;Original Matrix&lt;/font&gt;" style="text;html=1;strokeColor=#b85450;fillColor=none;align=center;verticalAlign=middle;whiteSpace=wrap;rounded=0;fontFamily=Courier New;fontSize=20;" vertex="1" parent="1">
          <mxGeometry x="907" y="320" width="239" height="30" as="geometry" />
        </mxCell>
        <mxCell id="YxIiZXSBLI5cnnB6mHRg-99" value="" style="rounded=0;whiteSpace=wrap;html=1;fillColor=none;strokeColor=#b85450;" vertex="1" parent="1">
          <mxGeometry x="86" y="320" width="200" height="200" as="geometry" />
        </mxCell>
        <mxCell id="YxIiZXSBLI5cnnB6mHRg-100" value="" style="rounded=0;whiteSpace=wrap;html=1;fillColor=none;strokeColor=#82b366;" vertex="1" parent="1">
          <mxGeometry x="395.5" y="577.5" width="194.5" height="62.5" as="geometry" />
        </mxCell>
        <mxCell id="YxIiZXSBLI5cnnB6mHRg-101" value="" style="rounded=0;whiteSpace=wrap;html=1;fillColor=none;strokeColor=#6c8ebf;" vertex="1" parent="1">
          <mxGeometry x="697" y="390" width="60" height="60" as="geometry" />
        </mxCell>
        <mxCell id="YxIiZXSBLI5cnnB6mHRg-102" value="" style="group" vertex="1" connectable="0" parent="1">
          <mxGeometry x="80" y="539" width="260" height="111" as="geometry" />
        </mxCell>
        <mxCell id="YxIiZXSBLI5cnnB6mHRg-103" value="" style="group" vertex="1" connectable="0" parent="YxIiZXSBLI5cnnB6mHRg-102">
          <mxGeometry y="81" width="260" height="30" as="geometry" />
        </mxCell>
        <mxCell id="YxIiZXSBLI5cnnB6mHRg-104" value="" style="rounded=0;whiteSpace=wrap;html=1;fillColor=#d5e8d4;strokeColor=#82b366;shadow=1;container=0;fontSize=18;" vertex="1" parent="YxIiZXSBLI5cnnB6mHRg-103">
          <mxGeometry x="6" width="30" height="30" as="geometry" />
        </mxCell>
        <mxCell id="YxIiZXSBLI5cnnB6mHRg-105" value="&lt;font style=&quot;font-size: 20px;&quot;&gt;Dependence, no DAC&lt;/font&gt;" style="text;html=1;strokeColor=none;fillColor=none;align=center;verticalAlign=middle;whiteSpace=wrap;rounded=0;fontSize=18;fontFamily=Courier New;" vertex="1" parent="YxIiZXSBLI5cnnB6mHRg-103">
          <mxGeometry x="30" width="230" height="30" as="geometry" />
        </mxCell>
        <mxCell id="YxIiZXSBLI5cnnB6mHRg-106" value="" style="group" vertex="1" connectable="0" parent="YxIiZXSBLI5cnnB6mHRg-102">
          <mxGeometry x="6" y="41" width="230" height="30" as="geometry" />
        </mxCell>
        <mxCell id="YxIiZXSBLI5cnnB6mHRg-107" value="" style="rounded=0;whiteSpace=wrap;html=1;fillColor=#f8cecc;strokeColor=#b85450;shadow=1;container=0;fontSize=18;" vertex="1" parent="YxIiZXSBLI5cnnB6mHRg-106">
          <mxGeometry width="30" height="30" as="geometry" />
        </mxCell>
        <mxCell id="YxIiZXSBLI5cnnB6mHRg-108" value="&lt;font style=&quot;font-size: 20px;&quot;&gt;Dependence, DAC&lt;/font&gt;" style="text;html=1;strokeColor=none;fillColor=none;align=center;verticalAlign=middle;whiteSpace=wrap;rounded=0;fontSize=18;fontFamily=Courier New;" vertex="1" parent="YxIiZXSBLI5cnnB6mHRg-106">
          <mxGeometry x="30" width="200" height="30" as="geometry" />
        </mxCell>
        <mxCell id="YxIiZXSBLI5cnnB6mHRg-109" value="" style="group" vertex="1" connectable="0" parent="YxIiZXSBLI5cnnB6mHRg-102">
          <mxGeometry x="6" width="120" height="30" as="geometry" />
        </mxCell>
        <mxCell id="YxIiZXSBLI5cnnB6mHRg-110" value="" style="rounded=0;whiteSpace=wrap;html=1;fillColor=#dae8fc;strokeColor=#6c8ebf;shadow=1;container=0;fontSize=18;" vertex="1" parent="YxIiZXSBLI5cnnB6mHRg-109">
          <mxGeometry width="30" height="30" as="geometry" />
        </mxCell>
        <mxCell id="YxIiZXSBLI5cnnB6mHRg-111" value="&lt;font style=&quot;font-size: 20px;&quot;&gt;Update&lt;/font&gt;" style="text;html=1;strokeColor=none;fillColor=none;align=center;verticalAlign=middle;whiteSpace=wrap;rounded=0;fontSize=18;fontFamily=Courier New;" vertex="1" parent="YxIiZXSBLI5cnnB6mHRg-109">
          <mxGeometry x="30" width="90" height="30" as="geometry" />
        </mxCell>
        <mxCell id="YxIiZXSBLI5cnnB6mHRg-112" value="" style="group" vertex="1" connectable="0" parent="1">
          <mxGeometry x="906" y="574" width="660" height="79" as="geometry" />
        </mxCell>
        <mxCell id="YxIiZXSBLI5cnnB6mHRg-113" value="" style="group" vertex="1" connectable="0" parent="YxIiZXSBLI5cnnB6mHRg-112">
          <mxGeometry y="36" width="660" height="43" as="geometry" />
        </mxCell>
        <mxCell id="YxIiZXSBLI5cnnB6mHRg-114" value="\(\beta_2\times\)A[x][y]" style="text;html=1;strokeColor=none;fillColor=none;align=center;verticalAlign=middle;whiteSpace=wrap;rounded=0;fontFamily=Courier New;fontSize=20;" vertex="1" parent="YxIiZXSBLI5cnnB6mHRg-113">
          <mxGeometry x="242.62352307692302" y="9.096153846153845" width="182.4923076923077" height="24.807692307692307" as="geometry" />
        </mxCell>
        <mxCell id="YxIiZXSBLI5cnnB6mHRg-115" value="" style="rounded=0;whiteSpace=wrap;html=1;fillColor=none;strokeColor=#6c8ebf;" vertex="1" parent="YxIiZXSBLI5cnnB6mHRg-113">
          <mxGeometry x="1" y="-1" width="659" height="43" as="geometry" />
        </mxCell>
        <mxCell id="YxIiZXSBLI5cnnB6mHRg-116" value="&lt;font style=&quot;font-size: 20px;&quot;&gt;$$+$$&lt;/font&gt;" style="text;html=1;strokeColor=none;fillColor=none;align=center;verticalAlign=middle;whiteSpace=wrap;rounded=0;" vertex="1" parent="YxIiZXSBLI5cnnB6mHRg-112">
          <mxGeometry x="320" width="40" height="40" as="geometry" />
        </mxCell>
        <mxCell id="YxIiZXSBLI5cnnB6mHRg-117" value="&lt;font style=&quot;font-size: 20px;&quot;&gt;Central Point&lt;/font&gt;" style="text;html=1;strokeColor=#6c8ebf;fillColor=none;align=center;verticalAlign=middle;whiteSpace=wrap;rounded=0;fontFamily=Courier New;fontSize=20;" vertex="1" parent="YxIiZXSBLI5cnnB6mHRg-112">
          <mxGeometry x="1" y="5" width="239" height="30" as="geometry" />
        </mxCell>
        <mxCell id="YxIiZXSBLI5cnnB6mHRg-118" value="" style="group" vertex="1" connectable="0" parent="1">
          <mxGeometry x="907" y="437.5" width="659" height="140" as="geometry" />
        </mxCell>
        <mxCell id="YxIiZXSBLI5cnnB6mHRg-119" value="&lt;font style=&quot;font-size: 20px;&quot;&gt;Splitting&lt;/font&gt;" style="text;html=1;strokeColor=none;fillColor=none;align=center;verticalAlign=middle;whiteSpace=wrap;rounded=0;fontFamily=Courier New;fontSize=20;" vertex="1" parent="YxIiZXSBLI5cnnB6mHRg-118">
          <mxGeometry x="340" width="140" height="30" as="geometry" />
        </mxCell>
        <mxCell id="YxIiZXSBLI5cnnB6mHRg-120" value="&lt;font style=&quot;font-size: 20px;&quot;&gt;Proportional Matrix&lt;/font&gt;" style="text;html=1;strokeColor=#82b366;fillColor=none;align=center;verticalAlign=middle;whiteSpace=wrap;rounded=0;fontFamily=Courier New;fontSize=20;" vertex="1" parent="YxIiZXSBLI5cnnB6mHRg-118">
          <mxGeometry y="10" width="239" height="30" as="geometry" />
        </mxCell>
        <mxCell id="YxIiZXSBLI5cnnB6mHRg-121" value="&lt;font style=&quot;font-size: 20px;&quot; face=&quot;Courier New&quot;&gt;\(\beta_1\times\)[A[x][y]&amp;nbsp; &amp;nbsp;+ \(\alpha_3/\alpha_2\times\)(A[x][y-1]+A[x][y+1])]&amp;nbsp; &amp;nbsp; &amp;nbsp;+&lt;/font&gt;&lt;font style=&quot;font-size: 20px;&quot; face=&quot;Courier New&quot;&gt;&lt;br style=&quot;font-size: 20px;&quot;&gt;\(\alpha_2\times\)[A[x-1][y] + \(\alpha_3/\alpha_2\times\)(A[x-1][y-1]+A[x-1][y+1])] +&amp;nbsp;&lt;br style=&quot;font-size: 20px;&quot;&gt;\(\alpha_2\times\)[A[x+1][y] + \(\alpha_3/\alpha_2\times\)(A[x+1][y-1]+A[x+1][y+1])]&lt;/font&gt;" style="text;html=1;strokeColor=none;fillColor=none;align=left;verticalAlign=middle;whiteSpace=wrap;rounded=0;fontSize=20;" vertex="1" parent="YxIiZXSBLI5cnnB6mHRg-118">
          <mxGeometry x="9" y="40" width="650" height="100" as="geometry" />
        </mxCell>
        <mxCell id="YxIiZXSBLI5cnnB6mHRg-122" value="" style="rounded=0;whiteSpace=wrap;html=1;fillColor=none;strokeColor=#82b366;container=0;" vertex="1" parent="YxIiZXSBLI5cnnB6mHRg-118">
          <mxGeometry y="40" width="659" height="100" as="geometry" />
        </mxCell>
        <mxCell id="YxIiZXSBLI5cnnB6mHRg-350" value="1" style="group" vertex="1" connectable="0" parent="1">
          <mxGeometry x="80" y="670" width="1680" height="280" as="geometry" />
        </mxCell>
        <mxCell id="YxIiZXSBLI5cnnB6mHRg-123" value="" style="rounded=0;whiteSpace=wrap;html=1;fillColor=#f5f5f5;strokeColor=#666666;shadow=1;container=0;fontColor=#333333;movable=1;resizable=1;rotatable=1;deletable=1;editable=1;locked=0;connectable=1;" vertex="1" parent="YxIiZXSBLI5cnnB6mHRg-350">
          <mxGeometry x="92.52173913043478" y="18.26086956521739" width="36.52173913043478" height="36.52173913043478" as="geometry" />
        </mxCell>
        <mxCell id="YxIiZXSBLI5cnnB6mHRg-124" value="" style="rounded=0;whiteSpace=wrap;html=1;fillColor=#f5f5f5;strokeColor=#666666;shadow=1;container=0;fontColor=#333333;movable=1;resizable=1;rotatable=1;deletable=1;editable=1;locked=0;connectable=1;" vertex="1" parent="YxIiZXSBLI5cnnB6mHRg-350">
          <mxGeometry x="129.04347826086956" y="18.26086956521739" width="36.52173913043478" height="36.52173913043478" as="geometry" />
        </mxCell>
        <mxCell id="YxIiZXSBLI5cnnB6mHRg-125" value="" style="rounded=0;whiteSpace=wrap;html=1;fillColor=#f8cecc;strokeColor=#b85450;shadow=1;container=0;movable=1;resizable=1;rotatable=1;deletable=1;editable=1;locked=0;connectable=1;" vertex="1" parent="YxIiZXSBLI5cnnB6mHRg-350">
          <mxGeometry x="165.56521739130437" y="18.26086956521739" width="42.608695652173914" height="36.52173913043478" as="geometry" />
        </mxCell>
        <mxCell id="YxIiZXSBLI5cnnB6mHRg-126" value="" style="rounded=0;whiteSpace=wrap;html=1;fillColor=#d5e8d4;strokeColor=#82b366;shadow=1;container=0;movable=1;resizable=1;rotatable=1;deletable=1;editable=1;locked=0;connectable=1;" vertex="1" parent="YxIiZXSBLI5cnnB6mHRg-350">
          <mxGeometry x="202.08695652173915" y="18.26086956521739" width="36.52173913043478" height="36.52173913043478" as="geometry" />
        </mxCell>
        <mxCell id="YxIiZXSBLI5cnnB6mHRg-127" value="" style="rounded=0;whiteSpace=wrap;html=1;fillColor=#f5f5f5;strokeColor=#666666;shadow=1;container=0;fontColor=#333333;movable=1;resizable=1;rotatable=1;deletable=1;editable=1;locked=0;connectable=1;" vertex="1" parent="YxIiZXSBLI5cnnB6mHRg-350">
          <mxGeometry x="92.52173913043478" y="73.04347826086956" width="36.52173913043478" height="36.52173913043478" as="geometry" />
        </mxCell>
        <mxCell id="YxIiZXSBLI5cnnB6mHRg-128" value="" style="rounded=0;whiteSpace=wrap;html=1;fillColor=#f5f5f5;strokeColor=#666666;shadow=1;container=0;fontColor=#333333;movable=1;resizable=1;rotatable=1;deletable=1;editable=1;locked=0;connectable=1;" vertex="1" parent="YxIiZXSBLI5cnnB6mHRg-350">
          <mxGeometry x="129.04347826086956" y="73.04347826086956" width="36.52173913043478" height="36.52173913043478" as="geometry" />
        </mxCell>
        <mxCell id="YxIiZXSBLI5cnnB6mHRg-129" value="" style="rounded=0;whiteSpace=wrap;html=1;fillColor=#f8cecc;strokeColor=#b85450;shadow=1;container=0;movable=1;resizable=1;rotatable=1;deletable=1;editable=1;locked=0;connectable=1;" vertex="1" parent="YxIiZXSBLI5cnnB6mHRg-350">
          <mxGeometry x="165.56521739130437" y="73.04347826086956" width="36.52173913043478" height="36.52173913043478" as="geometry" />
        </mxCell>
        <mxCell id="YxIiZXSBLI5cnnB6mHRg-130" value="" style="rounded=0;whiteSpace=wrap;html=1;fillColor=#dae8fc;strokeColor=#6c8ebf;shadow=1;container=0;movable=1;resizable=1;rotatable=1;deletable=1;editable=1;locked=0;connectable=1;" vertex="1" parent="YxIiZXSBLI5cnnB6mHRg-350">
          <mxGeometry x="202.08695652173915" y="73.04347826086956" width="36.52173913043478" height="36.52173913043478" as="geometry" />
        </mxCell>
        <mxCell id="YxIiZXSBLI5cnnB6mHRg-131" value="" style="rounded=0;whiteSpace=wrap;html=1;fillColor=#f5f5f5;strokeColor=#666666;shadow=1;container=0;fontColor=#333333;movable=1;resizable=1;rotatable=1;deletable=1;editable=1;locked=0;connectable=1;" vertex="1" parent="YxIiZXSBLI5cnnB6mHRg-350">
          <mxGeometry x="92.52173913043478" y="127.82608695652175" width="36.52173913043478" height="36.52173913043478" as="geometry" />
        </mxCell>
        <mxCell id="YxIiZXSBLI5cnnB6mHRg-132" value="" style="rounded=0;whiteSpace=wrap;html=1;fillColor=#f5f5f5;strokeColor=#666666;shadow=1;container=0;fontColor=#333333;movable=1;resizable=1;rotatable=1;deletable=1;editable=1;locked=0;connectable=1;" vertex="1" parent="YxIiZXSBLI5cnnB6mHRg-350">
          <mxGeometry x="129.04347826086956" y="127.82608695652175" width="36.52173913043478" height="36.52173913043478" as="geometry" />
        </mxCell>
        <mxCell id="YxIiZXSBLI5cnnB6mHRg-133" value="" style="rounded=0;whiteSpace=wrap;html=1;fillColor=#f8cecc;strokeColor=#b85450;shadow=1;container=0;movable=1;resizable=1;rotatable=1;deletable=1;editable=1;locked=0;connectable=1;" vertex="1" parent="YxIiZXSBLI5cnnB6mHRg-350">
          <mxGeometry x="165.56521739130437" y="127.82608695652175" width="36.52173913043478" height="36.52173913043478" as="geometry" />
        </mxCell>
        <mxCell id="YxIiZXSBLI5cnnB6mHRg-134" value="" style="rounded=0;whiteSpace=wrap;html=1;fillColor=#d5e8d4;strokeColor=#82b366;shadow=1;container=0;movable=1;resizable=1;rotatable=1;deletable=1;editable=1;locked=0;connectable=1;" vertex="1" parent="YxIiZXSBLI5cnnB6mHRg-350">
          <mxGeometry x="202.08695652173915" y="127.82608695652175" width="36.52173913043478" height="36.52173913043478" as="geometry" />
        </mxCell>
        <mxCell id="YxIiZXSBLI5cnnB6mHRg-135" value="&lt;font style=&quot;font-size: 20px;&quot; face=&quot;Courier New&quot;&gt;r&lt;/font&gt;" style="text;html=1;strokeColor=none;fillColor=none;align=center;verticalAlign=middle;whiteSpace=wrap;rounded=0;movable=1;resizable=1;rotatable=1;deletable=1;editable=1;locked=0;connectable=1;container=0;" vertex="1" parent="YxIiZXSBLI5cnnB6mHRg-350">
          <mxGeometry x="122.95652173913044" y="121.73913043478262" width="48.69565217391305" height="48.69565217391305" as="geometry" />
        </mxCell>
        <mxCell id="YxIiZXSBLI5cnnB6mHRg-136" value="&lt;font style=&quot;font-size: 20px;&quot; face=&quot;Courier New&quot;&gt;a&lt;/font&gt;" style="text;html=1;strokeColor=none;fillColor=none;align=center;verticalAlign=middle;whiteSpace=wrap;rounded=0;movable=1;resizable=1;rotatable=1;deletable=1;editable=1;locked=0;connectable=1;container=0;" vertex="1" parent="YxIiZXSBLI5cnnB6mHRg-350">
          <mxGeometry x="86.43478260869566" y="12.173913043478262" width="48.69565217391305" height="48.69565217391305" as="geometry" />
        </mxCell>
        <mxCell id="YxIiZXSBLI5cnnB6mHRg-137" value="&lt;font style=&quot;font-size: 20px;&quot; face=&quot;Courier New&quot;&gt;b&lt;/font&gt;" style="text;html=1;strokeColor=none;fillColor=none;align=center;verticalAlign=middle;whiteSpace=wrap;rounded=0;movable=1;resizable=1;rotatable=1;deletable=1;editable=1;locked=0;connectable=1;container=0;" vertex="1" parent="YxIiZXSBLI5cnnB6mHRg-350">
          <mxGeometry x="122.95652173913044" y="12.173913043478262" width="48.69565217391305" height="48.69565217391305" as="geometry" />
        </mxCell>
        <mxCell id="YxIiZXSBLI5cnnB6mHRg-138" value="&lt;font style=&quot;font-size: 20px;&quot; face=&quot;Courier New&quot;&gt;c&lt;/font&gt;" style="text;html=1;strokeColor=none;fillColor=none;align=center;verticalAlign=middle;whiteSpace=wrap;rounded=0;movable=1;resizable=1;rotatable=1;deletable=1;editable=1;locked=0;connectable=1;container=0;" vertex="1" parent="YxIiZXSBLI5cnnB6mHRg-350">
          <mxGeometry x="159.47826086956522" y="12.173913043478262" width="48.69565217391305" height="48.69565217391305" as="geometry" />
        </mxCell>
        <mxCell id="YxIiZXSBLI5cnnB6mHRg-139" value="&lt;font style=&quot;font-size: 20px;&quot; face=&quot;Courier New&quot;&gt;d&lt;/font&gt;" style="text;html=1;strokeColor=none;fillColor=none;align=center;verticalAlign=middle;whiteSpace=wrap;rounded=0;movable=1;resizable=1;rotatable=1;deletable=1;editable=1;locked=0;connectable=1;container=0;" vertex="1" parent="YxIiZXSBLI5cnnB6mHRg-350">
          <mxGeometry x="196" y="12.173913043478262" width="48.69565217391305" height="48.69565217391305" as="geometry" />
        </mxCell>
        <mxCell id="YxIiZXSBLI5cnnB6mHRg-140" value="&lt;font style=&quot;font-size: 20px;&quot; face=&quot;Courier New&quot;&gt;i&lt;/font&gt;" style="text;html=1;strokeColor=none;fillColor=none;align=center;verticalAlign=middle;whiteSpace=wrap;rounded=0;movable=1;resizable=1;rotatable=1;deletable=1;editable=1;locked=0;connectable=1;container=0;" vertex="1" parent="YxIiZXSBLI5cnnB6mHRg-350">
          <mxGeometry x="86.43478260869566" y="66.95652173913044" width="48.69565217391305" height="48.69565217391305" as="geometry" />
        </mxCell>
        <mxCell id="YxIiZXSBLI5cnnB6mHRg-141" value="&lt;font style=&quot;font-size: 20px;&quot; face=&quot;Courier New&quot;&gt;j&lt;/font&gt;" style="text;html=1;strokeColor=none;fillColor=none;align=center;verticalAlign=middle;whiteSpace=wrap;rounded=0;movable=1;resizable=1;rotatable=1;deletable=1;editable=1;locked=0;connectable=1;container=0;" vertex="1" parent="YxIiZXSBLI5cnnB6mHRg-350">
          <mxGeometry x="122.95652173913044" y="66.95652173913044" width="48.69565217391305" height="48.69565217391305" as="geometry" />
        </mxCell>
        <mxCell id="YxIiZXSBLI5cnnB6mHRg-142" value="&lt;font style=&quot;font-size: 20px;&quot; face=&quot;Courier New&quot;&gt;k&lt;/font&gt;" style="text;html=1;strokeColor=none;fillColor=none;align=center;verticalAlign=middle;whiteSpace=wrap;rounded=0;movable=1;resizable=1;rotatable=1;deletable=1;editable=1;locked=0;connectable=1;container=0;" vertex="1" parent="YxIiZXSBLI5cnnB6mHRg-350">
          <mxGeometry x="159.47826086956522" y="66.95652173913044" width="48.69565217391305" height="48.69565217391305" as="geometry" />
        </mxCell>
        <mxCell id="YxIiZXSBLI5cnnB6mHRg-143" value="&lt;font style=&quot;font-size: 20px;&quot; face=&quot;Courier New&quot;&gt;l&lt;/font&gt;" style="text;html=1;strokeColor=none;fillColor=none;align=center;verticalAlign=middle;whiteSpace=wrap;rounded=0;movable=1;resizable=1;rotatable=1;deletable=1;editable=1;locked=0;connectable=1;container=0;" vertex="1" parent="YxIiZXSBLI5cnnB6mHRg-350">
          <mxGeometry x="196" y="66.95652173913044" width="48.69565217391305" height="48.69565217391305" as="geometry" />
        </mxCell>
        <mxCell id="YxIiZXSBLI5cnnB6mHRg-144" value="&lt;font style=&quot;font-size: 20px;&quot; face=&quot;Courier New&quot;&gt;q&lt;/font&gt;" style="text;html=1;strokeColor=none;fillColor=none;align=center;verticalAlign=middle;whiteSpace=wrap;rounded=0;movable=1;resizable=1;rotatable=1;deletable=1;editable=1;locked=0;connectable=1;container=0;" vertex="1" parent="YxIiZXSBLI5cnnB6mHRg-350">
          <mxGeometry x="86.43478260869566" y="121.73913043478262" width="48.69565217391305" height="48.69565217391305" as="geometry" />
        </mxCell>
        <mxCell id="YxIiZXSBLI5cnnB6mHRg-145" value="&lt;font style=&quot;font-size: 20px;&quot; face=&quot;Courier New&quot;&gt;s&lt;/font&gt;" style="text;html=1;strokeColor=none;fillColor=none;align=center;verticalAlign=middle;whiteSpace=wrap;rounded=0;movable=1;resizable=1;rotatable=1;deletable=1;editable=1;locked=0;connectable=1;container=0;" vertex="1" parent="YxIiZXSBLI5cnnB6mHRg-350">
          <mxGeometry x="159.47826086956522" y="121.73913043478262" width="48.69565217391305" height="48.69565217391305" as="geometry" />
        </mxCell>
        <mxCell id="YxIiZXSBLI5cnnB6mHRg-146" value="&lt;font style=&quot;font-size: 20px;&quot; face=&quot;Courier New&quot;&gt;t&lt;/font&gt;" style="text;html=1;strokeColor=none;fillColor=none;align=center;verticalAlign=middle;whiteSpace=wrap;rounded=0;movable=1;resizable=1;rotatable=1;deletable=1;editable=1;locked=0;connectable=1;container=0;" vertex="1" parent="YxIiZXSBLI5cnnB6mHRg-350">
          <mxGeometry x="196" y="121.73913043478262" width="48.69565217391305" height="48.69565217391305" as="geometry" />
        </mxCell>
        <mxCell id="YxIiZXSBLI5cnnB6mHRg-147" value="" style="rounded=0;whiteSpace=wrap;html=1;fillColor=#f8cecc;strokeColor=#b85450;shadow=1;container=0;movable=1;resizable=1;rotatable=1;deletable=1;editable=1;locked=0;connectable=1;" vertex="1" parent="YxIiZXSBLI5cnnB6mHRg-350">
          <mxGeometry x="250.7826086956522" y="18.26086956521739" width="36.52173913043478" height="36.52173913043478" as="geometry" />
        </mxCell>
        <mxCell id="YxIiZXSBLI5cnnB6mHRg-148" value="" style="rounded=0;whiteSpace=wrap;html=1;fillColor=#f5f5f5;strokeColor=#666666;shadow=1;container=0;fontColor=#333333;movable=1;resizable=1;rotatable=1;deletable=1;editable=1;locked=0;connectable=1;" vertex="1" parent="YxIiZXSBLI5cnnB6mHRg-350">
          <mxGeometry x="287.304347826087" y="18.26086956521739" width="36.52173913043478" height="36.52173913043478" as="geometry" />
        </mxCell>
        <mxCell id="YxIiZXSBLI5cnnB6mHRg-149" value="" style="rounded=0;whiteSpace=wrap;html=1;fillColor=#f5f5f5;strokeColor=#666666;shadow=1;container=0;fontColor=#333333;movable=1;resizable=1;rotatable=1;deletable=1;editable=1;locked=0;connectable=1;" vertex="1" parent="YxIiZXSBLI5cnnB6mHRg-350">
          <mxGeometry x="323.82608695652175" y="18.26086956521739" width="36.52173913043478" height="36.52173913043478" as="geometry" />
        </mxCell>
        <mxCell id="YxIiZXSBLI5cnnB6mHRg-150" value="" style="rounded=0;whiteSpace=wrap;html=1;fillColor=#f5f5f5;strokeColor=#666666;shadow=1;container=0;fontColor=#333333;movable=1;resizable=1;rotatable=1;deletable=1;editable=1;locked=0;connectable=1;" vertex="1" parent="YxIiZXSBLI5cnnB6mHRg-350">
          <mxGeometry x="360.34782608695656" y="18.26086956521739" width="36.52173913043478" height="36.52173913043478" as="geometry" />
        </mxCell>
        <mxCell id="YxIiZXSBLI5cnnB6mHRg-151" value="" style="rounded=0;whiteSpace=wrap;html=1;fillColor=#f8cecc;strokeColor=#b85450;shadow=1;container=0;movable=1;resizable=1;rotatable=1;deletable=1;editable=1;locked=0;connectable=1;" vertex="1" parent="YxIiZXSBLI5cnnB6mHRg-350">
          <mxGeometry x="250.7826086956522" y="73.04347826086956" width="36.52173913043478" height="36.52173913043478" as="geometry" />
        </mxCell>
        <mxCell id="YxIiZXSBLI5cnnB6mHRg-152" value="" style="rounded=0;whiteSpace=wrap;html=1;fillColor=#f5f5f5;strokeColor=#666666;shadow=1;container=0;fontColor=#333333;movable=1;resizable=1;rotatable=1;deletable=1;editable=1;locked=0;connectable=1;" vertex="1" parent="YxIiZXSBLI5cnnB6mHRg-350">
          <mxGeometry x="287.304347826087" y="73.04347826086956" width="36.52173913043478" height="36.52173913043478" as="geometry" />
        </mxCell>
        <mxCell id="YxIiZXSBLI5cnnB6mHRg-153" value="" style="rounded=0;whiteSpace=wrap;html=1;fillColor=#f5f5f5;strokeColor=#666666;shadow=1;container=0;fontColor=#333333;movable=1;resizable=1;rotatable=1;deletable=1;editable=1;locked=0;connectable=1;" vertex="1" parent="YxIiZXSBLI5cnnB6mHRg-350">
          <mxGeometry x="323.82608695652175" y="73.04347826086956" width="36.52173913043478" height="36.52173913043478" as="geometry" />
        </mxCell>
        <mxCell id="YxIiZXSBLI5cnnB6mHRg-154" value="" style="rounded=0;whiteSpace=wrap;html=1;fillColor=#f5f5f5;strokeColor=#666666;shadow=1;container=0;fontColor=#333333;movable=1;resizable=1;rotatable=1;deletable=1;editable=1;locked=0;connectable=1;" vertex="1" parent="YxIiZXSBLI5cnnB6mHRg-350">
          <mxGeometry x="360.34782608695656" y="73.04347826086956" width="36.52173913043478" height="36.52173913043478" as="geometry" />
        </mxCell>
        <mxCell id="YxIiZXSBLI5cnnB6mHRg-155" value="" style="rounded=0;whiteSpace=wrap;html=1;fillColor=#f8cecc;strokeColor=#b85450;shadow=1;container=0;movable=1;resizable=1;rotatable=1;deletable=1;editable=1;locked=0;connectable=1;" vertex="1" parent="YxIiZXSBLI5cnnB6mHRg-350">
          <mxGeometry x="250.7826086956522" y="127.82608695652175" width="36.52173913043478" height="36.52173913043478" as="geometry" />
        </mxCell>
        <mxCell id="YxIiZXSBLI5cnnB6mHRg-156" value="" style="rounded=0;whiteSpace=wrap;html=1;fillColor=#f5f5f5;strokeColor=#666666;shadow=1;container=0;fontColor=#333333;movable=1;resizable=1;rotatable=1;deletable=1;editable=1;locked=0;connectable=1;" vertex="1" parent="YxIiZXSBLI5cnnB6mHRg-350">
          <mxGeometry x="287.304347826087" y="127.82608695652175" width="36.52173913043478" height="36.52173913043478" as="geometry" />
        </mxCell>
        <mxCell id="YxIiZXSBLI5cnnB6mHRg-157" value="" style="rounded=0;whiteSpace=wrap;html=1;fillColor=#f5f5f5;strokeColor=#666666;shadow=1;container=0;fontColor=#333333;movable=1;resizable=1;rotatable=1;deletable=1;editable=1;locked=0;connectable=1;" vertex="1" parent="YxIiZXSBLI5cnnB6mHRg-350">
          <mxGeometry x="323.82608695652175" y="127.82608695652175" width="36.52173913043478" height="36.52173913043478" as="geometry" />
        </mxCell>
        <mxCell id="YxIiZXSBLI5cnnB6mHRg-158" value="" style="rounded=0;whiteSpace=wrap;html=1;fillColor=#f5f5f5;strokeColor=#666666;shadow=1;container=0;fontColor=#333333;movable=1;resizable=1;rotatable=1;deletable=1;editable=1;locked=0;connectable=1;" vertex="1" parent="YxIiZXSBLI5cnnB6mHRg-350">
          <mxGeometry x="360.34782608695656" y="127.82608695652175" width="36.52173913043478" height="36.52173913043478" as="geometry" />
        </mxCell>
        <mxCell id="YxIiZXSBLI5cnnB6mHRg-159" value="&lt;font style=&quot;font-size: 20px;&quot; face=&quot;Courier New&quot;&gt;e&lt;/font&gt;" style="text;html=1;strokeColor=none;fillColor=none;align=center;verticalAlign=middle;whiteSpace=wrap;rounded=0;movable=1;resizable=1;rotatable=1;deletable=1;editable=1;locked=0;connectable=1;container=0;" vertex="1" parent="YxIiZXSBLI5cnnB6mHRg-350">
          <mxGeometry x="244.69565217391306" y="12.173913043478262" width="48.69565217391305" height="48.69565217391305" as="geometry" />
        </mxCell>
        <mxCell id="YxIiZXSBLI5cnnB6mHRg-160" value="&lt;font style=&quot;font-size: 20px;&quot; face=&quot;Courier New&quot;&gt;f&lt;/font&gt;" style="text;html=1;strokeColor=none;fillColor=none;align=center;verticalAlign=middle;whiteSpace=wrap;rounded=0;movable=1;resizable=1;rotatable=1;deletable=1;editable=1;locked=0;connectable=1;container=0;" vertex="1" parent="YxIiZXSBLI5cnnB6mHRg-350">
          <mxGeometry x="281.21739130434787" y="12.173913043478262" width="48.69565217391305" height="48.69565217391305" as="geometry" />
        </mxCell>
        <mxCell id="YxIiZXSBLI5cnnB6mHRg-161" value="&lt;font style=&quot;font-size: 20px;&quot; face=&quot;Courier New&quot;&gt;g&lt;/font&gt;" style="text;html=1;strokeColor=none;fillColor=none;align=center;verticalAlign=middle;whiteSpace=wrap;rounded=0;movable=1;resizable=1;rotatable=1;deletable=1;editable=1;locked=0;connectable=1;container=0;" vertex="1" parent="YxIiZXSBLI5cnnB6mHRg-350">
          <mxGeometry x="318.95652173913044" y="12.173913043478262" width="48.69565217391305" height="48.69565217391305" as="geometry" />
        </mxCell>
        <mxCell id="YxIiZXSBLI5cnnB6mHRg-162" value="&lt;font style=&quot;font-size: 20px;&quot; face=&quot;Courier New&quot;&gt;h&lt;/font&gt;" style="text;html=1;strokeColor=none;fillColor=none;align=center;verticalAlign=middle;whiteSpace=wrap;rounded=0;movable=1;resizable=1;rotatable=1;deletable=1;editable=1;locked=0;connectable=1;container=0;" vertex="1" parent="YxIiZXSBLI5cnnB6mHRg-350">
          <mxGeometry x="354.26086956521743" y="12.173913043478262" width="48.69565217391305" height="48.69565217391305" as="geometry" />
        </mxCell>
        <mxCell id="YxIiZXSBLI5cnnB6mHRg-163" value="&lt;font style=&quot;font-size: 20px;&quot; face=&quot;Courier New&quot;&gt;m&lt;/font&gt;" style="text;html=1;strokeColor=none;fillColor=none;align=center;verticalAlign=middle;whiteSpace=wrap;rounded=0;movable=1;resizable=1;rotatable=1;deletable=1;editable=1;locked=0;connectable=1;container=0;" vertex="1" parent="YxIiZXSBLI5cnnB6mHRg-350">
          <mxGeometry x="244.69565217391306" y="66.95652173913044" width="48.69565217391305" height="48.69565217391305" as="geometry" />
        </mxCell>
        <mxCell id="YxIiZXSBLI5cnnB6mHRg-164" value="&lt;font style=&quot;font-size: 20px;&quot; face=&quot;Courier New&quot;&gt;n&lt;/font&gt;" style="text;html=1;strokeColor=none;fillColor=none;align=center;verticalAlign=middle;whiteSpace=wrap;rounded=0;movable=1;resizable=1;rotatable=1;deletable=1;editable=1;locked=0;connectable=1;container=0;" vertex="1" parent="YxIiZXSBLI5cnnB6mHRg-350">
          <mxGeometry x="281.21739130434787" y="66.95652173913044" width="48.69565217391305" height="48.69565217391305" as="geometry" />
        </mxCell>
        <mxCell id="YxIiZXSBLI5cnnB6mHRg-165" value="&lt;font style=&quot;font-size: 20px;&quot; face=&quot;Courier New&quot;&gt;o&lt;/font&gt;" style="text;html=1;strokeColor=none;fillColor=none;align=center;verticalAlign=middle;whiteSpace=wrap;rounded=0;movable=1;resizable=1;rotatable=1;deletable=1;editable=1;locked=0;connectable=1;container=0;" vertex="1" parent="YxIiZXSBLI5cnnB6mHRg-350">
          <mxGeometry x="317.7391304347826" y="66.95652173913044" width="48.69565217391305" height="48.69565217391305" as="geometry" />
        </mxCell>
        <mxCell id="YxIiZXSBLI5cnnB6mHRg-166" value="&lt;font style=&quot;font-size: 20px;&quot; face=&quot;Courier New&quot;&gt;p&lt;/font&gt;" style="text;html=1;strokeColor=none;fillColor=none;align=center;verticalAlign=middle;whiteSpace=wrap;rounded=0;movable=1;resizable=1;rotatable=1;deletable=1;editable=1;locked=0;connectable=1;container=0;" vertex="1" parent="YxIiZXSBLI5cnnB6mHRg-350">
          <mxGeometry x="354.26086956521743" y="66.95652173913044" width="48.69565217391305" height="48.69565217391305" as="geometry" />
        </mxCell>
        <mxCell id="YxIiZXSBLI5cnnB6mHRg-167" value="&lt;font style=&quot;font-size: 20px;&quot; face=&quot;Courier New&quot;&gt;u&lt;/font&gt;" style="text;html=1;strokeColor=none;fillColor=none;align=center;verticalAlign=middle;whiteSpace=wrap;rounded=0;movable=1;resizable=1;rotatable=1;deletable=1;editable=1;locked=0;connectable=1;container=0;" vertex="1" parent="YxIiZXSBLI5cnnB6mHRg-350">
          <mxGeometry x="244.69565217391306" y="121.73913043478262" width="48.69565217391305" height="48.69565217391305" as="geometry" />
        </mxCell>
        <mxCell id="YxIiZXSBLI5cnnB6mHRg-168" value="&lt;font style=&quot;font-size: 20px;&quot; face=&quot;Courier New&quot;&gt;v&lt;/font&gt;" style="text;html=1;strokeColor=none;fillColor=none;align=center;verticalAlign=middle;whiteSpace=wrap;rounded=0;movable=1;resizable=1;rotatable=1;deletable=1;editable=1;locked=0;connectable=1;container=0;" vertex="1" parent="YxIiZXSBLI5cnnB6mHRg-350">
          <mxGeometry x="281.21739130434787" y="121.73913043478262" width="48.69565217391305" height="48.69565217391305" as="geometry" />
        </mxCell>
        <mxCell id="YxIiZXSBLI5cnnB6mHRg-169" value="&lt;font style=&quot;font-size: 20px;&quot; face=&quot;Courier New&quot;&gt;w&lt;/font&gt;" style="text;html=1;strokeColor=none;fillColor=none;align=center;verticalAlign=middle;whiteSpace=wrap;rounded=0;movable=1;resizable=1;rotatable=1;deletable=1;editable=1;locked=0;connectable=1;container=0;" vertex="1" parent="YxIiZXSBLI5cnnB6mHRg-350">
          <mxGeometry x="317.7391304347826" y="121.73913043478262" width="48.69565217391305" height="48.69565217391305" as="geometry" />
        </mxCell>
        <mxCell id="YxIiZXSBLI5cnnB6mHRg-170" value="&lt;font style=&quot;font-size: 20px;&quot; face=&quot;Courier New&quot;&gt;x&lt;/font&gt;" style="text;html=1;strokeColor=none;fillColor=none;align=center;verticalAlign=middle;whiteSpace=wrap;rounded=0;movable=1;resizable=1;rotatable=1;deletable=1;editable=1;locked=0;connectable=1;container=0;" vertex="1" parent="YxIiZXSBLI5cnnB6mHRg-350">
          <mxGeometry x="355.47826086956525" y="121.73913043478262" width="48.69565217391305" height="48.69565217391305" as="geometry" />
        </mxCell>
        <mxCell id="YxIiZXSBLI5cnnB6mHRg-171" value="" style="rounded=1;whiteSpace=wrap;html=1;fillColor=none;strokeColor=#6c8ebf;strokeWidth=2;movable=1;resizable=1;rotatable=1;deletable=1;editable=1;locked=0;connectable=1;container=0;" vertex="1" parent="YxIiZXSBLI5cnnB6mHRg-350">
          <mxGeometry x="122.95652173913044" y="66.95652173913044" width="170.43478260869566" height="48.69565217391305" as="geometry" />
        </mxCell>
        <mxCell id="YxIiZXSBLI5cnnB6mHRg-259" value="" style="rounded=0;whiteSpace=wrap;html=1;fillColor=none;dashed=1;fontColor=#333333;strokeColor=#666666;strokeWidth=2;movable=1;resizable=1;rotatable=1;deletable=1;editable=1;locked=0;connectable=1;container=0;" vertex="1" parent="YxIiZXSBLI5cnnB6mHRg-350">
          <mxGeometry x="85.21739130434783" y="12.173913043478262" width="317.7391304347826" height="158.2608695652174" as="geometry" />
        </mxCell>
        <mxCell id="YxIiZXSBLI5cnnB6mHRg-271" value="" style="group;fillColor=#f8cecc;strokeColor=#b85450;container=0;movable=1;resizable=1;rotatable=1;deletable=1;editable=1;locked=0;connectable=1;" vertex="1" connectable="0" parent="YxIiZXSBLI5cnnB6mHRg-350">
          <mxGeometry x="1000.6956521739131" y="237.3913043478261" width="146.08695652173913" height="36.52173913043478" as="geometry" />
        </mxCell>
        <mxCell id="YxIiZXSBLI5cnnB6mHRg-272" value="" style="rounded=0;whiteSpace=wrap;html=1;fillColor=#f8cecc;strokeColor=#b85450;shadow=1;container=0;movable=1;resizable=1;rotatable=1;deletable=1;editable=1;locked=0;connectable=1;" vertex="1" parent="YxIiZXSBLI5cnnB6mHRg-350">
          <mxGeometry x="1000.6956521739131" y="237.3913043478261" width="36.52173913043478" height="36.52173913043478" as="geometry" />
        </mxCell>
        <mxCell id="YxIiZXSBLI5cnnB6mHRg-273" value="" style="rounded=0;whiteSpace=wrap;html=1;fillColor=#f8cecc;strokeColor=#b85450;shadow=1;container=0;movable=1;resizable=1;rotatable=1;deletable=1;editable=1;locked=0;connectable=1;" vertex="1" parent="YxIiZXSBLI5cnnB6mHRg-350">
          <mxGeometry x="1037.217391304348" y="237.3913043478261" width="36.52173913043478" height="36.52173913043478" as="geometry" />
        </mxCell>
        <mxCell id="YxIiZXSBLI5cnnB6mHRg-274" value="" style="rounded=0;whiteSpace=wrap;html=1;fillColor=#f8cecc;strokeColor=#b85450;shadow=1;container=0;movable=1;resizable=1;rotatable=1;deletable=1;editable=1;locked=0;connectable=1;" vertex="1" parent="YxIiZXSBLI5cnnB6mHRg-350">
          <mxGeometry x="1073.7391304347827" y="237.3913043478261" width="36.52173913043478" height="36.52173913043478" as="geometry" />
        </mxCell>
        <mxCell id="YxIiZXSBLI5cnnB6mHRg-275" value="" style="rounded=0;whiteSpace=wrap;html=1;fillColor=#f8cecc;strokeColor=#b85450;shadow=1;container=0;movable=1;resizable=1;rotatable=1;deletable=1;editable=1;locked=0;connectable=1;" vertex="1" parent="YxIiZXSBLI5cnnB6mHRg-350">
          <mxGeometry x="1110.2608695652175" y="237.3913043478261" width="36.52173913043478" height="36.52173913043478" as="geometry" />
        </mxCell>
        <mxCell id="YxIiZXSBLI5cnnB6mHRg-276" value="&lt;font style=&quot;font-size: 20px;&quot; face=&quot;Courier New&quot;&gt;$$\alpha_2$$&lt;/font&gt;" style="text;html=1;strokeColor=none;fillColor=none;align=center;verticalAlign=middle;whiteSpace=wrap;rounded=0;container=0;movable=1;resizable=1;rotatable=1;deletable=1;editable=1;locked=0;connectable=1;" vertex="1" parent="YxIiZXSBLI5cnnB6mHRg-350">
          <mxGeometry x="964.1739130434784" y="231.30434782608697" width="36.52173913043478" height="48.69565217391305" as="geometry" />
        </mxCell>
        <mxCell id="YxIiZXSBLI5cnnB6mHRg-277" value="" style="rounded=0;whiteSpace=wrap;html=1;fillColor=none;strokeColor=#6c8ebf;dashed=1;strokeWidth=2;movable=1;resizable=1;rotatable=1;deletable=1;editable=1;locked=0;connectable=1;container=0;" vertex="1" parent="YxIiZXSBLI5cnnB6mHRg-350">
          <mxGeometry x="572.1739130434783" y="231.30434782608697" width="584.3478260869565" height="48.69565217391305" as="geometry" />
        </mxCell>
        <mxCell id="YxIiZXSBLI5cnnB6mHRg-295" value="" style="endArrow=classic;html=1;rounded=0;fillColor=#f8cecc;strokeColor=#b85450;movable=1;resizable=1;rotatable=1;deletable=1;editable=1;locked=0;connectable=1;" edge="1" parent="YxIiZXSBLI5cnnB6mHRg-350">
          <mxGeometry width="50" height="50" relative="1" as="geometry">
            <mxPoint x="1174.7826086956522" y="90.08695652173914" as="sourcePoint" />
            <mxPoint x="1320.8695652173915" y="91.30434782608697" as="targetPoint" />
          </mxGeometry>
        </mxCell>
        <mxCell id="YxIiZXSBLI5cnnB6mHRg-296" value="" style="rounded=0;whiteSpace=wrap;html=1;fillColor=#f5f5f5;strokeColor=#666666;shadow=1;container=0;fontColor=#333333;movable=1;resizable=1;rotatable=1;deletable=1;editable=1;locked=0;connectable=1;" vertex="1" parent="YxIiZXSBLI5cnnB6mHRg-350">
          <mxGeometry x="92.52173913043478" y="237.3913043478261" width="36.52173913043478" height="36.52173913043478" as="geometry" />
        </mxCell>
        <mxCell id="YxIiZXSBLI5cnnB6mHRg-297" value="" style="rounded=0;whiteSpace=wrap;html=1;fillColor=#f5f5f5;strokeColor=#666666;shadow=1;container=0;fontColor=#333333;movable=1;resizable=1;rotatable=1;deletable=1;editable=1;locked=0;connectable=1;" vertex="1" parent="YxIiZXSBLI5cnnB6mHRg-350">
          <mxGeometry x="129.04347826086956" y="237.3913043478261" width="36.52173913043478" height="36.52173913043478" as="geometry" />
        </mxCell>
        <mxCell id="YxIiZXSBLI5cnnB6mHRg-298" value="" style="rounded=0;whiteSpace=wrap;html=1;fillColor=#f8cecc;strokeColor=#b85450;shadow=1;container=0;movable=1;resizable=1;rotatable=1;deletable=1;editable=1;locked=0;connectable=1;" vertex="1" parent="YxIiZXSBLI5cnnB6mHRg-350">
          <mxGeometry x="165.56521739130437" y="237.3913043478261" width="36.52173913043478" height="36.52173913043478" as="geometry" />
        </mxCell>
        <mxCell id="YxIiZXSBLI5cnnB6mHRg-299" value="" style="rounded=0;whiteSpace=wrap;html=1;fillColor=#dae8fc;strokeColor=#6c8ebf;shadow=1;container=0;movable=1;resizable=1;rotatable=1;deletable=1;editable=1;locked=0;connectable=1;" vertex="1" parent="YxIiZXSBLI5cnnB6mHRg-350">
          <mxGeometry x="202.08695652173915" y="237.3913043478261" width="36.52173913043478" height="36.52173913043478" as="geometry" />
        </mxCell>
        <mxCell id="YxIiZXSBLI5cnnB6mHRg-300" value="&lt;font face=&quot;Courier New&quot;&gt;&lt;span style=&quot;font-size: 20px;&quot;&gt;I&lt;/span&gt;&lt;/font&gt;" style="text;html=1;strokeColor=none;fillColor=none;align=center;verticalAlign=middle;whiteSpace=wrap;rounded=0;movable=1;resizable=1;rotatable=1;deletable=1;editable=1;locked=0;connectable=1;container=0;" vertex="1" parent="YxIiZXSBLI5cnnB6mHRg-350">
          <mxGeometry x="86.43478260869566" y="231.30434782608697" width="48.69565217391305" height="48.69565217391305" as="geometry" />
        </mxCell>
        <mxCell id="YxIiZXSBLI5cnnB6mHRg-301" value="&lt;font style=&quot;font-size: 20px;&quot; face=&quot;Courier New&quot;&gt;J&lt;/font&gt;" style="text;html=1;strokeColor=none;fillColor=none;align=center;verticalAlign=middle;whiteSpace=wrap;rounded=0;movable=1;resizable=1;rotatable=1;deletable=1;editable=1;locked=0;connectable=1;container=0;" vertex="1" parent="YxIiZXSBLI5cnnB6mHRg-350">
          <mxGeometry x="122.95652173913044" y="231.30434782608697" width="48.69565217391305" height="48.69565217391305" as="geometry" />
        </mxCell>
        <mxCell id="YxIiZXSBLI5cnnB6mHRg-302" value="&lt;font style=&quot;font-size: 20px;&quot; face=&quot;Courier New&quot;&gt;K&lt;/font&gt;" style="text;html=1;strokeColor=none;fillColor=none;align=center;verticalAlign=middle;whiteSpace=wrap;rounded=0;movable=1;resizable=1;rotatable=1;deletable=1;editable=1;locked=0;connectable=1;container=0;" vertex="1" parent="YxIiZXSBLI5cnnB6mHRg-350">
          <mxGeometry x="159.47826086956522" y="231.30434782608697" width="48.69565217391305" height="48.69565217391305" as="geometry" />
        </mxCell>
        <mxCell id="YxIiZXSBLI5cnnB6mHRg-303" value="&lt;font style=&quot;font-size: 20px;&quot; face=&quot;Courier New&quot;&gt;L&lt;/font&gt;" style="text;html=1;strokeColor=none;fillColor=none;align=center;verticalAlign=middle;whiteSpace=wrap;rounded=0;movable=1;resizable=1;rotatable=1;deletable=1;editable=1;locked=0;connectable=1;container=0;" vertex="1" parent="YxIiZXSBLI5cnnB6mHRg-350">
          <mxGeometry x="196" y="231.30434782608697" width="48.69565217391305" height="48.69565217391305" as="geometry" />
        </mxCell>
        <mxCell id="YxIiZXSBLI5cnnB6mHRg-304" value="" style="rounded=0;whiteSpace=wrap;html=1;fillColor=#f8cecc;strokeColor=#b85450;shadow=1;container=0;movable=1;resizable=1;rotatable=1;deletable=1;editable=1;locked=0;connectable=1;" vertex="1" parent="YxIiZXSBLI5cnnB6mHRg-350">
          <mxGeometry x="252.00000000000003" y="237.3913043478261" width="36.52173913043478" height="36.52173913043478" as="geometry" />
        </mxCell>
        <mxCell id="YxIiZXSBLI5cnnB6mHRg-305" value="" style="rounded=0;whiteSpace=wrap;html=1;fillColor=#f5f5f5;strokeColor=#666666;shadow=1;container=0;fontColor=#333333;movable=1;resizable=1;rotatable=1;deletable=1;editable=1;locked=0;connectable=1;" vertex="1" parent="YxIiZXSBLI5cnnB6mHRg-350">
          <mxGeometry x="288.5217391304348" y="237.3913043478261" width="36.52173913043478" height="36.52173913043478" as="geometry" />
        </mxCell>
        <mxCell id="YxIiZXSBLI5cnnB6mHRg-306" value="" style="rounded=0;whiteSpace=wrap;html=1;fillColor=#f5f5f5;strokeColor=#666666;shadow=1;container=0;fontColor=#333333;movable=1;resizable=1;rotatable=1;deletable=1;editable=1;locked=0;connectable=1;" vertex="1" parent="YxIiZXSBLI5cnnB6mHRg-350">
          <mxGeometry x="325.04347826086956" y="237.3913043478261" width="36.52173913043478" height="36.52173913043478" as="geometry" />
        </mxCell>
        <mxCell id="YxIiZXSBLI5cnnB6mHRg-307" value="" style="rounded=0;whiteSpace=wrap;html=1;fillColor=#f5f5f5;strokeColor=#666666;shadow=1;container=0;fontColor=#333333;movable=1;resizable=1;rotatable=1;deletable=1;editable=1;locked=0;connectable=1;" vertex="1" parent="YxIiZXSBLI5cnnB6mHRg-350">
          <mxGeometry x="361.5652173913044" y="237.3913043478261" width="36.52173913043478" height="36.52173913043478" as="geometry" />
        </mxCell>
        <mxCell id="YxIiZXSBLI5cnnB6mHRg-308" value="&lt;font style=&quot;font-size: 20px;&quot; face=&quot;Courier New&quot;&gt;M&lt;/font&gt;" style="text;html=1;strokeColor=none;fillColor=none;align=center;verticalAlign=middle;whiteSpace=wrap;rounded=0;movable=1;resizable=1;rotatable=1;deletable=1;editable=1;locked=0;connectable=1;container=0;" vertex="1" parent="YxIiZXSBLI5cnnB6mHRg-350">
          <mxGeometry x="245.91304347826087" y="231.30434782608697" width="48.69565217391305" height="48.69565217391305" as="geometry" />
        </mxCell>
        <mxCell id="YxIiZXSBLI5cnnB6mHRg-309" value="&lt;font style=&quot;font-size: 20px;&quot; face=&quot;Courier New&quot;&gt;N&lt;/font&gt;" style="text;html=1;strokeColor=none;fillColor=none;align=center;verticalAlign=middle;whiteSpace=wrap;rounded=0;movable=1;resizable=1;rotatable=1;deletable=1;editable=1;locked=0;connectable=1;container=0;" vertex="1" parent="YxIiZXSBLI5cnnB6mHRg-350">
          <mxGeometry x="282.4347826086957" y="231.30434782608697" width="48.69565217391305" height="48.69565217391305" as="geometry" />
        </mxCell>
        <mxCell id="YxIiZXSBLI5cnnB6mHRg-310" value="&lt;font style=&quot;font-size: 20px;&quot; face=&quot;Courier New&quot;&gt;O&lt;/font&gt;" style="text;html=1;strokeColor=none;fillColor=none;align=center;verticalAlign=middle;whiteSpace=wrap;rounded=0;movable=1;resizable=1;rotatable=1;deletable=1;editable=1;locked=0;connectable=1;container=0;" vertex="1" parent="YxIiZXSBLI5cnnB6mHRg-350">
          <mxGeometry x="318.95652173913044" y="231.30434782608697" width="48.69565217391305" height="48.69565217391305" as="geometry" />
        </mxCell>
        <mxCell id="YxIiZXSBLI5cnnB6mHRg-311" value="&lt;font style=&quot;font-size: 20px;&quot; face=&quot;Courier New&quot;&gt;P&lt;/font&gt;" style="text;html=1;strokeColor=none;fillColor=none;align=center;verticalAlign=middle;whiteSpace=wrap;rounded=0;movable=1;resizable=1;rotatable=1;deletable=1;editable=1;locked=0;connectable=1;container=0;" vertex="1" parent="YxIiZXSBLI5cnnB6mHRg-350">
          <mxGeometry x="355.47826086956525" y="231.30434782608697" width="48.69565217391305" height="48.69565217391305" as="geometry" />
        </mxCell>
        <mxCell id="YxIiZXSBLI5cnnB6mHRg-312" value="" style="rounded=0;whiteSpace=wrap;html=1;fillColor=none;strokeColor=#82b366;dashed=1;strokeWidth=2;movable=1;resizable=1;rotatable=1;deletable=1;editable=1;locked=0;connectable=1;container=0;" vertex="1" parent="YxIiZXSBLI5cnnB6mHRg-350">
          <mxGeometry x="85.21739130434783" y="231.30434782608697" width="317.7391304347826" height="48.69565217391305" as="geometry" />
        </mxCell>
        <mxCell id="YxIiZXSBLI5cnnB6mHRg-313" value="&lt;font face=&quot;Courier New&quot; style=&quot;font-size: 20px;&quot;&gt;$$+$$&lt;/font&gt;" style="text;html=1;strokeColor=none;fillColor=none;align=center;verticalAlign=middle;whiteSpace=wrap;rounded=0;movable=1;resizable=1;rotatable=1;deletable=1;editable=1;locked=0;connectable=1;container=0;" vertex="1" parent="YxIiZXSBLI5cnnB6mHRg-350">
          <mxGeometry x="1157.1304347826087" y="231.30434782608697" width="48.69565217391305" height="48.69565217391305" as="geometry" />
        </mxCell>
        <mxCell id="YxIiZXSBLI5cnnB6mHRg-314" value="" style="endArrow=classic;html=1;rounded=0;fillColor=#dae8fc;strokeColor=#6c8ebf;movable=1;resizable=1;rotatable=1;deletable=1;editable=1;locked=0;connectable=1;" edge="1" parent="YxIiZXSBLI5cnnB6mHRg-350">
          <mxGeometry width="50" height="50" relative="1" as="geometry">
            <mxPoint x="1180.8695652173915" y="225.21739130434784" as="sourcePoint" />
            <mxPoint x="1320.8695652173915" y="115.65217391304348" as="targetPoint" />
          </mxGeometry>
        </mxCell>
        <mxCell id="YxIiZXSBLI5cnnB6mHRg-315" value="" style="endArrow=classic;html=1;rounded=0;fillColor=#f8cecc;strokeColor=#b85450;movable=1;resizable=1;rotatable=1;deletable=1;editable=1;locked=0;connectable=1;" edge="1" parent="YxIiZXSBLI5cnnB6mHRg-350">
          <mxGeometry width="50" height="50" relative="1" as="geometry">
            <mxPoint x="415.13043478260875" y="36.52173913043478" as="sourcePoint" />
            <mxPoint x="561.2173913043479" y="36.52173913043478" as="targetPoint" />
          </mxGeometry>
        </mxCell>
        <mxCell id="YxIiZXSBLI5cnnB6mHRg-316" value="&lt;font face=&quot;Courier New&quot; style=&quot;font-size: 20px;&quot;&gt;Shuffle&lt;/font&gt;" style="text;html=1;strokeColor=none;fillColor=none;align=center;verticalAlign=middle;whiteSpace=wrap;rounded=0;movable=1;resizable=1;rotatable=1;deletable=1;editable=1;locked=0;connectable=1;container=0;" vertex="1" parent="YxIiZXSBLI5cnnB6mHRg-350">
          <mxGeometry x="439.47826086956525" width="97.3913043478261" height="36.52173913043478" as="geometry" />
        </mxCell>
        <mxCell id="YxIiZXSBLI5cnnB6mHRg-317" value="" style="endArrow=classic;html=1;rounded=0;fillColor=#f8cecc;strokeColor=#b85450;movable=1;resizable=1;rotatable=1;deletable=1;editable=1;locked=0;connectable=1;" edge="1" parent="YxIiZXSBLI5cnnB6mHRg-350">
          <mxGeometry width="50" height="50" relative="1" as="geometry">
            <mxPoint x="415.13043478260875" y="91.30434782608697" as="sourcePoint" />
            <mxPoint x="561.2173913043479" y="91.30434782608697" as="targetPoint" />
          </mxGeometry>
        </mxCell>
        <mxCell id="YxIiZXSBLI5cnnB6mHRg-318" value="&lt;font face=&quot;Courier New&quot; style=&quot;font-size: 20px;&quot;&gt;Shuffle&lt;/font&gt;" style="text;html=1;strokeColor=none;fillColor=none;align=center;verticalAlign=middle;whiteSpace=wrap;rounded=0;movable=1;resizable=1;rotatable=1;deletable=1;editable=1;locked=0;connectable=1;container=0;" vertex="1" parent="YxIiZXSBLI5cnnB6mHRg-350">
          <mxGeometry x="439.47826086956525" y="54.78260869565218" width="97.3913043478261" height="36.52173913043478" as="geometry" />
        </mxCell>
        <mxCell id="YxIiZXSBLI5cnnB6mHRg-319" value="" style="endArrow=classic;html=1;rounded=0;fillColor=#f8cecc;strokeColor=#b85450;movable=1;resizable=1;rotatable=1;deletable=1;editable=1;locked=0;connectable=1;" edge="1" parent="YxIiZXSBLI5cnnB6mHRg-350">
          <mxGeometry width="50" height="50" relative="1" as="geometry">
            <mxPoint x="415.13043478260875" y="146.08695652173913" as="sourcePoint" />
            <mxPoint x="561.2173913043479" y="146.08695652173913" as="targetPoint" />
          </mxGeometry>
        </mxCell>
        <mxCell id="YxIiZXSBLI5cnnB6mHRg-320" value="&lt;font face=&quot;Courier New&quot; style=&quot;font-size: 20px;&quot;&gt;Shuffle&lt;/font&gt;" style="text;html=1;strokeColor=none;fillColor=none;align=center;verticalAlign=middle;whiteSpace=wrap;rounded=0;movable=1;resizable=1;rotatable=1;deletable=1;editable=1;locked=0;connectable=1;container=0;" vertex="1" parent="YxIiZXSBLI5cnnB6mHRg-350">
          <mxGeometry x="439.47826086956525" y="109.56521739130436" width="97.3913043478261" height="36.52173913043478" as="geometry" />
        </mxCell>
        <mxCell id="YxIiZXSBLI5cnnB6mHRg-321" value="" style="endArrow=classic;html=1;rounded=0;fillColor=#dae8fc;strokeColor=#6c8ebf;movable=1;resizable=1;rotatable=1;deletable=1;editable=1;locked=0;connectable=1;" edge="1" parent="YxIiZXSBLI5cnnB6mHRg-350">
          <mxGeometry width="50" height="50" relative="1" as="geometry">
            <mxPoint x="416.34782608695656" y="255.6521739130435" as="sourcePoint" />
            <mxPoint x="562.4347826086957" y="255.6521739130435" as="targetPoint" />
          </mxGeometry>
        </mxCell>
        <mxCell id="YxIiZXSBLI5cnnB6mHRg-322" value="&lt;font face=&quot;Courier New&quot; style=&quot;font-size: 20px;&quot;&gt;Shuffle&lt;/font&gt;" style="text;html=1;strokeColor=none;fillColor=none;align=center;verticalAlign=middle;whiteSpace=wrap;rounded=0;movable=1;resizable=1;rotatable=1;deletable=1;editable=1;locked=0;connectable=1;container=0;" vertex="1" parent="YxIiZXSBLI5cnnB6mHRg-350">
          <mxGeometry x="440.69565217391306" y="219.13043478260872" width="97.3913043478261" height="36.52173913043478" as="geometry" />
        </mxCell>
        <mxCell id="YxIiZXSBLI5cnnB6mHRg-323" value="" style="endArrow=classic;html=1;rounded=0;fillColor=#dae8fc;strokeColor=#6c8ebf;movable=1;resizable=1;rotatable=1;deletable=1;editable=1;locked=0;connectable=1;" edge="1" parent="YxIiZXSBLI5cnnB6mHRg-350">
          <mxGeometry width="50" height="50" relative="1" as="geometry">
            <mxPoint x="244.69565217391306" y="170.43478260869566" as="sourcePoint" />
            <mxPoint x="244.69565217391306" y="231.30434782608697" as="targetPoint" />
          </mxGeometry>
        </mxCell>
        <mxCell id="YxIiZXSBLI5cnnB6mHRg-324" value="&lt;font face=&quot;Courier New&quot; style=&quot;font-size: 20px;&quot;&gt;&lt;b&gt;Dimension Flattening&lt;/b&gt;&lt;/font&gt;" style="text;html=1;strokeColor=none;fillColor=none;align=center;verticalAlign=middle;whiteSpace=wrap;rounded=0;movable=1;resizable=1;rotatable=1;deletable=1;editable=1;locked=0;connectable=1;container=0;" vertex="1" parent="YxIiZXSBLI5cnnB6mHRg-350">
          <mxGeometry x="250.67193675889325" y="185.6521739130435" width="323.7154150197629" height="30.434782608695656" as="geometry" />
        </mxCell>
        <mxCell id="YxIiZXSBLI5cnnB6mHRg-325" value="" style="rounded=0;whiteSpace=wrap;html=1;fillColor=#f8cecc;strokeColor=#b85450;shadow=1;container=0;movable=1;resizable=1;rotatable=1;deletable=1;editable=1;locked=0;connectable=1;" vertex="1" parent="YxIiZXSBLI5cnnB6mHRg-350">
          <mxGeometry x="611.1304347826087" y="237.3913043478261" width="36.52173913043478" height="36.52173913043478" as="geometry" />
        </mxCell>
        <mxCell id="YxIiZXSBLI5cnnB6mHRg-326" value="" style="rounded=0;whiteSpace=wrap;html=1;fillColor=#f8cecc;strokeColor=#b85450;shadow=1;container=0;movable=1;resizable=1;rotatable=1;deletable=1;editable=1;locked=0;connectable=1;" vertex="1" parent="YxIiZXSBLI5cnnB6mHRg-350">
          <mxGeometry x="647.6521739130435" y="237.3913043478261" width="36.52173913043478" height="36.52173913043478" as="geometry" />
        </mxCell>
        <mxCell id="YxIiZXSBLI5cnnB6mHRg-327" value="" style="rounded=0;whiteSpace=wrap;html=1;fillColor=#f8cecc;strokeColor=#b85450;shadow=1;container=0;movable=1;resizable=1;rotatable=1;deletable=1;editable=1;locked=0;connectable=1;" vertex="1" parent="YxIiZXSBLI5cnnB6mHRg-350">
          <mxGeometry x="684.1739130434783" y="237.3913043478261" width="36.52173913043478" height="36.52173913043478" as="geometry" />
        </mxCell>
        <mxCell id="YxIiZXSBLI5cnnB6mHRg-328" value="" style="rounded=0;whiteSpace=wrap;html=1;fillColor=#f8cecc;strokeColor=#b85450;shadow=1;container=0;movable=1;resizable=1;rotatable=1;deletable=1;editable=1;locked=0;connectable=1;" vertex="1" parent="YxIiZXSBLI5cnnB6mHRg-350">
          <mxGeometry x="720.6956521739131" y="237.3913043478261" width="36.52173913043478" height="36.52173913043478" as="geometry" />
        </mxCell>
        <mxCell id="YxIiZXSBLI5cnnB6mHRg-329" value="&lt;font style=&quot;font-size: 20px;&quot; face=&quot;Courier New&quot;&gt;$$\alpha_2$$&lt;/font&gt;" style="text;html=1;strokeColor=none;fillColor=none;align=center;verticalAlign=middle;whiteSpace=wrap;rounded=0;movable=1;resizable=1;rotatable=1;deletable=1;editable=1;locked=0;connectable=1;container=0;" vertex="1" parent="YxIiZXSBLI5cnnB6mHRg-350">
          <mxGeometry x="574.608695652174" y="231.30434782608697" width="36.52173913043478" height="48.69565217391305" as="geometry" />
        </mxCell>
        <mxCell id="YxIiZXSBLI5cnnB6mHRg-330" value="&lt;font style=&quot;font-size: 20px;&quot; face=&quot;Courier New&quot;&gt;I&lt;/font&gt;" style="text;html=1;strokeColor=none;fillColor=none;align=center;verticalAlign=middle;whiteSpace=wrap;rounded=0;movable=1;resizable=1;rotatable=1;deletable=1;editable=1;locked=0;connectable=1;container=0;" vertex="1" parent="YxIiZXSBLI5cnnB6mHRg-350">
          <mxGeometry x="605.0434782608696" y="231.30434782608697" width="48.69565217391305" height="48.69565217391305" as="geometry" />
        </mxCell>
        <mxCell id="YxIiZXSBLI5cnnB6mHRg-331" value="&lt;font style=&quot;font-size: 20px;&quot; face=&quot;Courier New&quot;&gt;J&lt;/font&gt;" style="text;html=1;strokeColor=none;fillColor=none;align=center;verticalAlign=middle;whiteSpace=wrap;rounded=0;movable=1;resizable=1;rotatable=1;deletable=1;editable=1;locked=0;connectable=1;container=0;" vertex="1" parent="YxIiZXSBLI5cnnB6mHRg-350">
          <mxGeometry x="635.4782608695652" y="231.30434782608697" width="60.86956521739131" height="48.69565217391305" as="geometry" />
        </mxCell>
        <mxCell id="YxIiZXSBLI5cnnB6mHRg-332" value="&lt;font style=&quot;font-size: 20px;&quot; face=&quot;Courier New&quot;&gt;K&lt;/font&gt;" style="text;html=1;strokeColor=none;fillColor=none;align=center;verticalAlign=middle;whiteSpace=wrap;rounded=0;movable=1;resizable=1;rotatable=1;deletable=1;editable=1;locked=0;connectable=1;container=0;" vertex="1" parent="YxIiZXSBLI5cnnB6mHRg-350">
          <mxGeometry x="678.0869565217391" y="231.30434782608697" width="48.69565217391305" height="48.69565217391305" as="geometry" />
        </mxCell>
        <mxCell id="YxIiZXSBLI5cnnB6mHRg-333" value="&lt;font style=&quot;font-size: 20px;&quot; face=&quot;Courier New&quot;&gt;L&lt;/font&gt;" style="text;html=1;strokeColor=none;fillColor=none;align=center;verticalAlign=middle;whiteSpace=wrap;rounded=0;movable=1;resizable=1;rotatable=1;deletable=1;editable=1;locked=0;connectable=1;container=0;" vertex="1" parent="YxIiZXSBLI5cnnB6mHRg-350">
          <mxGeometry x="720.6956521739131" y="231.30434782608697" width="36.52173913043478" height="48.69565217391305" as="geometry" />
        </mxCell>
        <mxCell id="YxIiZXSBLI5cnnB6mHRg-334" value="&lt;font style=&quot;font-size: 20px;&quot; face=&quot;Courier New&quot;&gt;K&lt;/font&gt;" style="text;html=1;strokeColor=none;fillColor=none;align=center;verticalAlign=middle;whiteSpace=wrap;rounded=0;movable=1;resizable=1;rotatable=1;deletable=1;editable=1;locked=0;connectable=1;container=0;" vertex="1" parent="YxIiZXSBLI5cnnB6mHRg-350">
          <mxGeometry x="994.608695652174" y="231.30434782608697" width="48.69565217391305" height="48.69565217391305" as="geometry" />
        </mxCell>
        <mxCell id="YxIiZXSBLI5cnnB6mHRg-335" value="&lt;font style=&quot;font-size: 20px;&quot; face=&quot;Courier New&quot;&gt;L&lt;/font&gt;" style="text;html=1;strokeColor=none;fillColor=none;align=center;verticalAlign=middle;whiteSpace=wrap;rounded=0;movable=1;resizable=1;rotatable=1;deletable=1;editable=1;locked=0;connectable=1;container=0;" vertex="1" parent="YxIiZXSBLI5cnnB6mHRg-350">
          <mxGeometry x="1031.1304347826087" y="231.30434782608697" width="48.69565217391305" height="48.69565217391305" as="geometry" />
        </mxCell>
        <mxCell id="YxIiZXSBLI5cnnB6mHRg-336" value="&lt;font style=&quot;font-size: 20px;&quot; face=&quot;Courier New&quot;&gt;M&lt;/font&gt;" style="text;html=1;strokeColor=none;fillColor=none;align=center;verticalAlign=middle;whiteSpace=wrap;rounded=0;movable=1;resizable=1;rotatable=1;deletable=1;editable=1;locked=0;connectable=1;container=0;" vertex="1" parent="YxIiZXSBLI5cnnB6mHRg-350">
          <mxGeometry x="1067.6521739130435" y="231.30434782608697" width="48.69565217391305" height="48.69565217391305" as="geometry" />
        </mxCell>
        <mxCell id="YxIiZXSBLI5cnnB6mHRg-337" value="&lt;font style=&quot;font-size: 20px;&quot; face=&quot;Courier New&quot;&gt;N&lt;/font&gt;" style="text;html=1;strokeColor=none;fillColor=none;align=center;verticalAlign=middle;whiteSpace=wrap;rounded=0;movable=1;resizable=1;rotatable=1;deletable=1;editable=1;locked=0;connectable=1;container=0;" vertex="1" parent="YxIiZXSBLI5cnnB6mHRg-350">
          <mxGeometry x="1104.1739130434783" y="231.30434782608697" width="48.69565217391305" height="48.69565217391305" as="geometry" />
        </mxCell>
        <mxCell id="YxIiZXSBLI5cnnB6mHRg-338" value="" style="edgeStyle=none;orthogonalLoop=1;jettySize=auto;html=1;curved=1;endArrow=none;endFill=0;startArrow=classic;startFill=1;dashed=1;fillColor=#dae8fc;strokeColor=#6c8ebf;strokeWidth=2;movable=1;resizable=1;rotatable=1;deletable=1;editable=1;locked=0;connectable=1;" edge="1" parent="YxIiZXSBLI5cnnB6mHRg-350">
          <mxGeometry width="80" relative="1" as="geometry">
            <mxPoint x="73.04347826086956" y="90.08695652173914" as="sourcePoint" />
            <mxPoint x="73.04347826086956" y="146.08695652173913" as="targetPoint" />
            <Array as="points">
              <mxPoint x="24.347826086956523" y="126.60869565217392" />
            </Array>
          </mxGeometry>
        </mxCell>
        <mxCell id="YxIiZXSBLI5cnnB6mHRg-339" value="&lt;font face=&quot;Courier New&quot; style=&quot;font-size: 18px;&quot;&gt;$$\frac{\alpha_3}{\alpha_2}$$&lt;/font&gt;" style="text;html=1;strokeColor=none;fillColor=none;align=center;verticalAlign=middle;whiteSpace=wrap;rounded=0;movable=1;resizable=1;rotatable=1;deletable=1;editable=1;locked=0;connectable=1;container=0;" vertex="1" parent="YxIiZXSBLI5cnnB6mHRg-350">
          <mxGeometry y="102.2608695652174" width="48.69565217391305" height="48.69565217391305" as="geometry" />
        </mxCell>
        <mxCell id="YxIiZXSBLI5cnnB6mHRg-340" value="" style="edgeStyle=none;orthogonalLoop=1;jettySize=auto;html=1;curved=1;dashed=1;fillColor=#dae8fc;strokeColor=#6c8ebf;strokeWidth=2;movable=1;resizable=1;rotatable=1;deletable=1;editable=1;locked=0;connectable=1;" edge="1" parent="YxIiZXSBLI5cnnB6mHRg-350">
          <mxGeometry width="80" relative="1" as="geometry">
            <mxPoint x="73.04347826086956" y="36.52173913043478" as="sourcePoint" />
            <mxPoint x="73.04347826086956" y="85.21739130434783" as="targetPoint" />
            <Array as="points">
              <mxPoint x="24.347826086956523" y="60.86956521739131" />
            </Array>
          </mxGeometry>
        </mxCell>
        <mxCell id="YxIiZXSBLI5cnnB6mHRg-341" value="&lt;font face=&quot;Courier New&quot; style=&quot;font-size: 18px;&quot;&gt;$$\frac{\alpha_3}{\alpha_2}$$&lt;/font&gt;" style="text;html=1;strokeColor=none;fillColor=none;align=center;verticalAlign=middle;whiteSpace=wrap;rounded=0;container=0;movable=1;resizable=1;rotatable=1;deletable=1;editable=1;locked=0;connectable=1;" vertex="1" parent="YxIiZXSBLI5cnnB6mHRg-350">
          <mxGeometry y="36.52173913043478" width="48.69565217391305" height="48.69565217391305" as="geometry" />
        </mxCell>
        <mxCell id="YxIiZXSBLI5cnnB6mHRg-342" value="&lt;font style=&quot;font-size: 20px;&quot; face=&quot;Courier New&quot;&gt;&lt;b&gt;Naive&lt;/b&gt;&lt;/font&gt;" style="text;html=1;strokeColor=none;fillColor=none;align=center;verticalAlign=middle;whiteSpace=wrap;rounded=0;movable=1;resizable=1;rotatable=1;deletable=1;editable=1;locked=0;connectable=1;container=0;" vertex="1" parent="YxIiZXSBLI5cnnB6mHRg-350">
          <mxGeometry x="1205.8260869565217" y="54.78260869565218" width="73.04347826086956" height="36.52173913043478" as="geometry" />
        </mxCell>
        <mxCell id="YxIiZXSBLI5cnnB6mHRg-343" value="&lt;font style=&quot;font-size: 20px;&quot; face=&quot;Courier New&quot;&gt;&lt;b&gt;Optimized&lt;/b&gt;&lt;/font&gt;" style="text;html=1;strokeColor=none;fillColor=none;align=center;verticalAlign=middle;whiteSpace=wrap;rounded=0;movable=1;resizable=1;rotatable=1;deletable=1;editable=1;locked=0;connectable=1;container=0;" vertex="1" parent="YxIiZXSBLI5cnnB6mHRg-350">
          <mxGeometry x="1260" y="150.95652173913044" width="152.17391304347828" height="36.52173913043478" as="geometry" />
        </mxCell>
        <mxCell id="YxIiZXSBLI5cnnB6mHRg-344" value="" style="rounded=0;whiteSpace=wrap;html=1;fillColor=none;dashed=1;container=0;movable=1;resizable=1;rotatable=1;deletable=1;editable=1;locked=0;connectable=1;" vertex="1" parent="YxIiZXSBLI5cnnB6mHRg-350">
          <mxGeometry x="1448.6956521739132" y="182.60869565217394" width="231.30434782608697" height="73.04347826086956" as="geometry" />
        </mxCell>
        <mxCell id="YxIiZXSBLI5cnnB6mHRg-345" value="" style="endArrow=classic;html=1;rounded=0;fillColor=#dae8fc;strokeColor=#6c8ebf;movable=1;resizable=1;rotatable=1;deletable=1;editable=1;locked=0;connectable=1;" edge="1" parent="YxIiZXSBLI5cnnB6mHRg-350">
          <mxGeometry width="50" height="50" relative="1" as="geometry">
            <mxPoint x="1460.8695652173915" y="236.17391304347828" as="sourcePoint" />
            <mxPoint x="1509.5652173913045" y="236.17391304347828" as="targetPoint" />
          </mxGeometry>
        </mxCell>
        <mxCell id="YxIiZXSBLI5cnnB6mHRg-346" value="&lt;font style=&quot;font-size: 20px;&quot; face=&quot;Courier New&quot;&gt;Optimized&lt;/font&gt;" style="text;html=1;strokeColor=none;fillColor=none;align=center;verticalAlign=middle;whiteSpace=wrap;rounded=0;movable=1;resizable=1;rotatable=1;deletable=1;editable=1;locked=0;connectable=1;container=0;" vertex="1" parent="YxIiZXSBLI5cnnB6mHRg-350">
          <mxGeometry x="1503.4782608695652" y="225.21739130434784" width="164.34782608695653" height="24.347826086956523" as="geometry" />
        </mxCell>
        <mxCell id="YxIiZXSBLI5cnnB6mHRg-347" value="" style="endArrow=classic;html=1;rounded=0;fillColor=#f8cecc;strokeColor=#b85450;movable=1;resizable=1;rotatable=1;deletable=1;editable=1;locked=0;connectable=1;" edge="1" parent="YxIiZXSBLI5cnnB6mHRg-350">
          <mxGeometry width="50" height="50" relative="1" as="geometry">
            <mxPoint x="1460.8695652173915" y="200.2608695652174" as="sourcePoint" />
            <mxPoint x="1509.5652173913045" y="200.8695652173913" as="targetPoint" />
          </mxGeometry>
        </mxCell>
        <mxCell id="YxIiZXSBLI5cnnB6mHRg-348" value="&lt;font style=&quot;font-size: 20px;&quot; face=&quot;Courier New&quot;&gt;Naive&lt;/font&gt;" style="text;html=1;strokeColor=none;fillColor=none;align=center;verticalAlign=middle;whiteSpace=wrap;rounded=0;movable=1;resizable=1;rotatable=1;deletable=1;editable=1;locked=0;connectable=1;container=0;" vertex="1" parent="YxIiZXSBLI5cnnB6mHRg-350">
          <mxGeometry x="1502.8695652173915" y="188.69565217391306" width="104.08695652173914" height="24.347826086956523" as="geometry" />
        </mxCell>
        <mxCell id="YxIiZXSBLI5cnnB6mHRg-173" value="" style="rounded=0;whiteSpace=wrap;html=1;fillColor=#f8cecc;strokeColor=#b85450;shadow=1;container=0;movable=1;resizable=1;rotatable=1;deletable=1;editable=1;locked=0;connectable=1;" vertex="1" parent="YxIiZXSBLI5cnnB6mHRg-350">
          <mxGeometry x="609.9130434782609" y="18.26086956521739" width="36.52173913043478" height="36.52173913043478" as="geometry" />
        </mxCell>
        <mxCell id="YxIiZXSBLI5cnnB6mHRg-174" value="" style="rounded=0;whiteSpace=wrap;html=1;fillColor=#f8cecc;strokeColor=#b85450;shadow=1;container=0;movable=1;resizable=1;rotatable=1;deletable=1;editable=1;locked=0;connectable=1;" vertex="1" parent="YxIiZXSBLI5cnnB6mHRg-350">
          <mxGeometry x="646.4347826086957" y="18.26086956521739" width="36.52173913043478" height="36.52173913043478" as="geometry" />
        </mxCell>
        <mxCell id="YxIiZXSBLI5cnnB6mHRg-175" value="" style="rounded=0;whiteSpace=wrap;html=1;fillColor=#f8cecc;strokeColor=#b85450;shadow=1;container=0;movable=1;resizable=1;rotatable=1;deletable=1;editable=1;locked=0;connectable=1;" vertex="1" parent="YxIiZXSBLI5cnnB6mHRg-350">
          <mxGeometry x="682.9565217391305" y="18.26086956521739" width="36.52173913043478" height="36.52173913043478" as="geometry" />
        </mxCell>
        <mxCell id="YxIiZXSBLI5cnnB6mHRg-176" value="" style="rounded=0;whiteSpace=wrap;html=1;fillColor=#f8cecc;strokeColor=#b85450;shadow=1;container=0;movable=1;resizable=1;rotatable=1;deletable=1;editable=1;locked=0;connectable=1;" vertex="1" parent="YxIiZXSBLI5cnnB6mHRg-350">
          <mxGeometry x="719.4782608695652" y="18.26086956521739" width="36.52173913043478" height="36.52173913043478" as="geometry" />
        </mxCell>
        <mxCell id="YxIiZXSBLI5cnnB6mHRg-177" value="" style="rounded=0;whiteSpace=wrap;html=1;fillColor=#f8cecc;strokeColor=#b85450;shadow=1;container=0;movable=1;resizable=1;rotatable=1;deletable=1;editable=1;locked=0;connectable=1;" vertex="1" parent="YxIiZXSBLI5cnnB6mHRg-350">
          <mxGeometry x="609.9130434782609" y="73.04347826086956" width="36.52173913043478" height="36.52173913043478" as="geometry" />
        </mxCell>
        <mxCell id="YxIiZXSBLI5cnnB6mHRg-178" value="" style="rounded=0;whiteSpace=wrap;html=1;fillColor=#f8cecc;strokeColor=#b85450;shadow=1;container=0;movable=1;resizable=1;rotatable=1;deletable=1;editable=1;locked=0;connectable=1;" vertex="1" parent="YxIiZXSBLI5cnnB6mHRg-350">
          <mxGeometry x="646.4347826086957" y="73.04347826086956" width="36.52173913043478" height="36.52173913043478" as="geometry" />
        </mxCell>
        <mxCell id="YxIiZXSBLI5cnnB6mHRg-179" value="" style="rounded=0;whiteSpace=wrap;html=1;fillColor=#f8cecc;strokeColor=#b85450;shadow=1;container=0;movable=1;resizable=1;rotatable=1;deletable=1;editable=1;locked=0;connectable=1;" vertex="1" parent="YxIiZXSBLI5cnnB6mHRg-350">
          <mxGeometry x="682.9565217391305" y="73.04347826086956" width="36.52173913043478" height="36.52173913043478" as="geometry" />
        </mxCell>
        <mxCell id="YxIiZXSBLI5cnnB6mHRg-180" value="" style="rounded=0;whiteSpace=wrap;html=1;fillColor=#f8cecc;strokeColor=#b85450;shadow=1;container=0;movable=1;resizable=1;rotatable=1;deletable=1;editable=1;locked=0;connectable=1;" vertex="1" parent="YxIiZXSBLI5cnnB6mHRg-350">
          <mxGeometry x="719.4782608695652" y="73.04347826086956" width="36.52173913043478" height="36.52173913043478" as="geometry" />
        </mxCell>
        <mxCell id="YxIiZXSBLI5cnnB6mHRg-181" value="" style="rounded=0;whiteSpace=wrap;html=1;fillColor=#f8cecc;strokeColor=#b85450;shadow=1;container=0;movable=1;resizable=1;rotatable=1;deletable=1;editable=1;locked=0;connectable=1;" vertex="1" parent="YxIiZXSBLI5cnnB6mHRg-350">
          <mxGeometry x="609.9130434782609" y="127.82608695652175" width="36.52173913043478" height="36.52173913043478" as="geometry" />
        </mxCell>
        <mxCell id="YxIiZXSBLI5cnnB6mHRg-182" value="" style="rounded=0;whiteSpace=wrap;html=1;fillColor=#f8cecc;strokeColor=#b85450;shadow=1;container=0;movable=1;resizable=1;rotatable=1;deletable=1;editable=1;locked=0;connectable=1;" vertex="1" parent="YxIiZXSBLI5cnnB6mHRg-350">
          <mxGeometry x="646.4347826086957" y="127.82608695652175" width="36.52173913043478" height="36.52173913043478" as="geometry" />
        </mxCell>
        <mxCell id="YxIiZXSBLI5cnnB6mHRg-183" value="" style="rounded=0;whiteSpace=wrap;html=1;fillColor=#f8cecc;strokeColor=#b85450;shadow=1;container=0;movable=1;resizable=1;rotatable=1;deletable=1;editable=1;locked=0;connectable=1;" vertex="1" parent="YxIiZXSBLI5cnnB6mHRg-350">
          <mxGeometry x="682.9565217391305" y="127.82608695652175" width="36.52173913043478" height="36.52173913043478" as="geometry" />
        </mxCell>
        <mxCell id="YxIiZXSBLI5cnnB6mHRg-184" value="" style="rounded=0;whiteSpace=wrap;html=1;fillColor=#f8cecc;strokeColor=#b85450;shadow=1;container=0;movable=1;resizable=1;rotatable=1;deletable=1;editable=1;locked=0;connectable=1;" vertex="1" parent="YxIiZXSBLI5cnnB6mHRg-350">
          <mxGeometry x="719.4782608695652" y="127.82608695652175" width="36.52173913043478" height="36.52173913043478" as="geometry" />
        </mxCell>
        <mxCell id="YxIiZXSBLI5cnnB6mHRg-185" value="&lt;font style=&quot;font-size: 20px;&quot; face=&quot;Courier New&quot;&gt;a&lt;/font&gt;" style="text;html=1;strokeColor=none;fillColor=none;align=center;verticalAlign=middle;whiteSpace=wrap;rounded=0;movable=1;resizable=1;rotatable=1;deletable=1;editable=1;locked=0;connectable=1;container=0;" vertex="1" parent="YxIiZXSBLI5cnnB6mHRg-350">
          <mxGeometry x="603.8260869565217" y="12.173913043478262" width="48.69565217391305" height="48.69565217391305" as="geometry" />
        </mxCell>
        <mxCell id="YxIiZXSBLI5cnnB6mHRg-186" value="&lt;font style=&quot;font-size: 20px;&quot; face=&quot;Courier New&quot;&gt;b&lt;/font&gt;" style="text;html=1;strokeColor=none;fillColor=none;align=center;verticalAlign=middle;whiteSpace=wrap;rounded=0;movable=1;resizable=1;rotatable=1;deletable=1;editable=1;locked=0;connectable=1;container=0;" vertex="1" parent="YxIiZXSBLI5cnnB6mHRg-350">
          <mxGeometry x="640.3478260869566" y="12.173913043478262" width="48.69565217391305" height="48.69565217391305" as="geometry" />
        </mxCell>
        <mxCell id="YxIiZXSBLI5cnnB6mHRg-187" value="&lt;font style=&quot;font-size: 20px;&quot; face=&quot;Courier New&quot;&gt;c&lt;/font&gt;" style="text;html=1;strokeColor=none;fillColor=none;align=center;verticalAlign=middle;whiteSpace=wrap;rounded=0;movable=1;resizable=1;rotatable=1;deletable=1;editable=1;locked=0;connectable=1;container=0;" vertex="1" parent="YxIiZXSBLI5cnnB6mHRg-350">
          <mxGeometry x="676.8695652173914" y="12.173913043478262" width="48.69565217391305" height="48.69565217391305" as="geometry" />
        </mxCell>
        <mxCell id="YxIiZXSBLI5cnnB6mHRg-188" value="&lt;font style=&quot;font-size: 20px;&quot; face=&quot;Courier New&quot;&gt;d&lt;/font&gt;" style="text;html=1;strokeColor=none;fillColor=none;align=center;verticalAlign=middle;whiteSpace=wrap;rounded=0;movable=1;resizable=1;rotatable=1;deletable=1;editable=1;locked=0;connectable=1;container=0;" vertex="1" parent="YxIiZXSBLI5cnnB6mHRg-350">
          <mxGeometry x="713.3913043478261" y="12.173913043478262" width="48.69565217391305" height="48.69565217391305" as="geometry" />
        </mxCell>
        <mxCell id="YxIiZXSBLI5cnnB6mHRg-189" value="&lt;font style=&quot;font-size: 20px;&quot; face=&quot;Courier New&quot;&gt;i&lt;/font&gt;" style="text;html=1;strokeColor=none;fillColor=none;align=center;verticalAlign=middle;whiteSpace=wrap;rounded=0;movable=1;resizable=1;rotatable=1;deletable=1;editable=1;locked=0;connectable=1;container=0;" vertex="1" parent="YxIiZXSBLI5cnnB6mHRg-350">
          <mxGeometry x="603.8260869565217" y="66.95652173913044" width="48.69565217391305" height="48.69565217391305" as="geometry" />
        </mxCell>
        <mxCell id="YxIiZXSBLI5cnnB6mHRg-190" value="&lt;font style=&quot;font-size: 20px;&quot; face=&quot;Courier New&quot;&gt;j&lt;/font&gt;" style="text;html=1;strokeColor=none;fillColor=none;align=center;verticalAlign=middle;whiteSpace=wrap;rounded=0;movable=1;resizable=1;rotatable=1;deletable=1;editable=1;locked=0;connectable=1;container=0;" vertex="1" parent="YxIiZXSBLI5cnnB6mHRg-350">
          <mxGeometry x="640.3478260869566" y="66.95652173913044" width="48.69565217391305" height="48.69565217391305" as="geometry" />
        </mxCell>
        <mxCell id="YxIiZXSBLI5cnnB6mHRg-191" value="&lt;font style=&quot;font-size: 20px;&quot; face=&quot;Courier New&quot;&gt;k&lt;/font&gt;" style="text;html=1;strokeColor=none;fillColor=none;align=center;verticalAlign=middle;whiteSpace=wrap;rounded=0;movable=1;resizable=1;rotatable=1;deletable=1;editable=1;locked=0;connectable=1;container=0;" vertex="1" parent="YxIiZXSBLI5cnnB6mHRg-350">
          <mxGeometry x="676.8695652173914" y="66.95652173913044" width="48.69565217391305" height="48.69565217391305" as="geometry" />
        </mxCell>
        <mxCell id="YxIiZXSBLI5cnnB6mHRg-192" value="&lt;font style=&quot;font-size: 20px;&quot; face=&quot;Courier New&quot;&gt;l&lt;/font&gt;" style="text;html=1;strokeColor=none;fillColor=none;align=center;verticalAlign=middle;whiteSpace=wrap;rounded=0;movable=1;resizable=1;rotatable=1;deletable=1;editable=1;locked=0;connectable=1;container=0;" vertex="1" parent="YxIiZXSBLI5cnnB6mHRg-350">
          <mxGeometry x="713.3913043478261" y="66.95652173913044" width="48.69565217391305" height="48.69565217391305" as="geometry" />
        </mxCell>
        <mxCell id="YxIiZXSBLI5cnnB6mHRg-193" value="&lt;font style=&quot;font-size: 20px;&quot; face=&quot;Courier New&quot;&gt;q&lt;/font&gt;" style="text;html=1;strokeColor=none;fillColor=none;align=center;verticalAlign=middle;whiteSpace=wrap;rounded=0;movable=1;resizable=1;rotatable=1;deletable=1;editable=1;locked=0;connectable=1;container=0;" vertex="1" parent="YxIiZXSBLI5cnnB6mHRg-350">
          <mxGeometry x="603.8260869565217" y="121.73913043478262" width="48.69565217391305" height="48.69565217391305" as="geometry" />
        </mxCell>
        <mxCell id="YxIiZXSBLI5cnnB6mHRg-194" value="&lt;font style=&quot;font-size: 20px;&quot; face=&quot;Courier New&quot;&gt;r&lt;/font&gt;" style="text;html=1;strokeColor=none;fillColor=none;align=center;verticalAlign=middle;whiteSpace=wrap;rounded=0;movable=1;resizable=1;rotatable=1;deletable=1;editable=1;locked=0;connectable=1;container=0;" vertex="1" parent="YxIiZXSBLI5cnnB6mHRg-350">
          <mxGeometry x="640.3478260869566" y="121.73913043478262" width="48.69565217391305" height="48.69565217391305" as="geometry" />
        </mxCell>
        <mxCell id="YxIiZXSBLI5cnnB6mHRg-195" value="&lt;font style=&quot;font-size: 20px;&quot; face=&quot;Courier New&quot;&gt;s&lt;/font&gt;" style="text;html=1;strokeColor=none;fillColor=none;align=center;verticalAlign=middle;whiteSpace=wrap;rounded=0;movable=1;resizable=1;rotatable=1;deletable=1;editable=1;locked=0;connectable=1;container=0;" vertex="1" parent="YxIiZXSBLI5cnnB6mHRg-350">
          <mxGeometry x="670.7826086956522" y="121.73913043478262" width="60.86956521739131" height="48.69565217391305" as="geometry" />
        </mxCell>
        <mxCell id="YxIiZXSBLI5cnnB6mHRg-196" value="&lt;font style=&quot;font-size: 20px;&quot; face=&quot;Courier New&quot;&gt;t&lt;/font&gt;" style="text;html=1;strokeColor=none;fillColor=none;align=center;verticalAlign=middle;whiteSpace=wrap;rounded=0;movable=1;resizable=1;rotatable=1;deletable=1;editable=1;locked=0;connectable=1;container=0;" vertex="1" parent="YxIiZXSBLI5cnnB6mHRg-350">
          <mxGeometry x="713.3913043478261" y="121.73913043478262" width="48.69565217391305" height="48.69565217391305" as="geometry" />
        </mxCell>
        <mxCell id="YxIiZXSBLI5cnnB6mHRg-197" value="" style="rounded=0;whiteSpace=wrap;html=1;fillColor=#d5e8d4;strokeColor=#82b366;shadow=1;container=0;movable=1;resizable=1;rotatable=1;deletable=1;editable=1;locked=0;connectable=1;" vertex="1" parent="YxIiZXSBLI5cnnB6mHRg-350">
          <mxGeometry x="804.6956521739131" y="18.26086956521739" width="36.52173913043478" height="36.52173913043478" as="geometry" />
        </mxCell>
        <mxCell id="YxIiZXSBLI5cnnB6mHRg-198" value="" style="rounded=0;whiteSpace=wrap;html=1;fillColor=#d5e8d4;strokeColor=#82b366;shadow=1;container=0;movable=1;resizable=1;rotatable=1;deletable=1;editable=1;locked=0;connectable=1;" vertex="1" parent="YxIiZXSBLI5cnnB6mHRg-350">
          <mxGeometry x="841.2173913043479" y="18.26086956521739" width="36.52173913043478" height="36.52173913043478" as="geometry" />
        </mxCell>
        <mxCell id="YxIiZXSBLI5cnnB6mHRg-199" value="" style="rounded=0;whiteSpace=wrap;html=1;fillColor=#d5e8d4;strokeColor=#82b366;shadow=1;container=0;movable=1;resizable=1;rotatable=1;deletable=1;editable=1;locked=0;connectable=1;" vertex="1" parent="YxIiZXSBLI5cnnB6mHRg-350">
          <mxGeometry x="877.7391304347826" y="18.26086956521739" width="36.52173913043478" height="36.52173913043478" as="geometry" />
        </mxCell>
        <mxCell id="YxIiZXSBLI5cnnB6mHRg-200" value="" style="rounded=0;whiteSpace=wrap;html=1;fillColor=#d5e8d4;strokeColor=#82b366;shadow=1;container=0;movable=1;resizable=1;rotatable=1;deletable=1;editable=1;locked=0;connectable=1;" vertex="1" parent="YxIiZXSBLI5cnnB6mHRg-350">
          <mxGeometry x="914.2608695652175" y="18.26086956521739" width="36.52173913043478" height="36.52173913043478" as="geometry" />
        </mxCell>
        <mxCell id="YxIiZXSBLI5cnnB6mHRg-201" value="" style="rounded=0;whiteSpace=wrap;html=1;fillColor=#d5e8d4;strokeColor=#82b366;shadow=1;container=0;movable=1;resizable=1;rotatable=1;deletable=1;editable=1;locked=0;connectable=1;" vertex="1" parent="YxIiZXSBLI5cnnB6mHRg-350">
          <mxGeometry x="804.6956521739131" y="127.82608695652175" width="36.52173913043478" height="36.52173913043478" as="geometry" />
        </mxCell>
        <mxCell id="YxIiZXSBLI5cnnB6mHRg-202" value="" style="rounded=0;whiteSpace=wrap;html=1;fillColor=#d5e8d4;strokeColor=#82b366;shadow=1;container=0;movable=1;resizable=1;rotatable=1;deletable=1;editable=1;locked=0;connectable=1;" vertex="1" parent="YxIiZXSBLI5cnnB6mHRg-350">
          <mxGeometry x="841.2173913043479" y="127.82608695652175" width="36.52173913043478" height="36.52173913043478" as="geometry" />
        </mxCell>
        <mxCell id="YxIiZXSBLI5cnnB6mHRg-203" value="" style="rounded=0;whiteSpace=wrap;html=1;fillColor=#d5e8d4;strokeColor=#82b366;shadow=1;container=0;movable=1;resizable=1;rotatable=1;deletable=1;editable=1;locked=0;connectable=1;" vertex="1" parent="YxIiZXSBLI5cnnB6mHRg-350">
          <mxGeometry x="877.7391304347826" y="127.82608695652175" width="36.52173913043478" height="36.52173913043478" as="geometry" />
        </mxCell>
        <mxCell id="YxIiZXSBLI5cnnB6mHRg-204" value="" style="rounded=0;whiteSpace=wrap;html=1;fillColor=#d5e8d4;strokeColor=#82b366;shadow=1;container=0;movable=1;resizable=1;rotatable=1;deletable=1;editable=1;locked=0;connectable=1;" vertex="1" parent="YxIiZXSBLI5cnnB6mHRg-350">
          <mxGeometry x="914.2608695652175" y="127.82608695652175" width="36.52173913043478" height="36.52173913043478" as="geometry" />
        </mxCell>
        <mxCell id="YxIiZXSBLI5cnnB6mHRg-205" value="" style="group;fillColor=#dae8fc;strokeColor=#6c8ebf;movable=1;resizable=1;rotatable=1;deletable=1;editable=1;locked=0;connectable=1;container=0;" vertex="1" connectable="0" parent="YxIiZXSBLI5cnnB6mHRg-350">
          <mxGeometry x="804.6956521739131" y="73.04347826086956" width="152.17391304347828" height="42.608695652173914" as="geometry" />
        </mxCell>
        <mxCell id="YxIiZXSBLI5cnnB6mHRg-214" value="&lt;font style=&quot;font-size: 20px;&quot; face=&quot;Courier New&quot;&gt;b&lt;/font&gt;" style="text;html=1;strokeColor=none;fillColor=none;align=center;verticalAlign=middle;whiteSpace=wrap;rounded=0;movable=1;resizable=1;rotatable=1;deletable=1;editable=1;locked=0;connectable=1;container=0;" vertex="1" parent="YxIiZXSBLI5cnnB6mHRg-350">
          <mxGeometry x="798.608695652174" y="12.173913043478262" width="48.69565217391305" height="48.69565217391305" as="geometry" />
        </mxCell>
        <mxCell id="YxIiZXSBLI5cnnB6mHRg-215" value="&lt;font style=&quot;font-size: 20px;&quot; face=&quot;Courier New&quot;&gt;c&lt;/font&gt;" style="text;html=1;strokeColor=none;fillColor=none;align=center;verticalAlign=middle;whiteSpace=wrap;rounded=0;movable=1;resizable=1;rotatable=1;deletable=1;editable=1;locked=0;connectable=1;container=0;" vertex="1" parent="YxIiZXSBLI5cnnB6mHRg-350">
          <mxGeometry x="829.0434782608696" y="12.173913043478262" width="60.86956521739131" height="48.69565217391305" as="geometry" />
        </mxCell>
        <mxCell id="YxIiZXSBLI5cnnB6mHRg-216" value="&lt;font style=&quot;font-size: 20px;&quot; face=&quot;Courier New&quot;&gt;d&lt;/font&gt;" style="text;html=1;strokeColor=none;fillColor=none;align=center;verticalAlign=middle;whiteSpace=wrap;rounded=0;movable=1;resizable=1;rotatable=1;deletable=1;editable=1;locked=0;connectable=1;container=0;" vertex="1" parent="YxIiZXSBLI5cnnB6mHRg-350">
          <mxGeometry x="871.6521739130435" y="12.173913043478262" width="48.69565217391305" height="48.69565217391305" as="geometry" />
        </mxCell>
        <mxCell id="YxIiZXSBLI5cnnB6mHRg-217" value="&lt;font style=&quot;font-size: 20px;&quot; face=&quot;Courier New&quot;&gt;e&lt;/font&gt;" style="text;html=1;strokeColor=none;fillColor=none;align=center;verticalAlign=middle;whiteSpace=wrap;rounded=0;movable=1;resizable=1;rotatable=1;deletable=1;editable=1;locked=0;connectable=1;container=0;" vertex="1" parent="YxIiZXSBLI5cnnB6mHRg-350">
          <mxGeometry x="908.1739130434784" y="12.173913043478262" width="48.69565217391305" height="48.69565217391305" as="geometry" />
        </mxCell>
        <mxCell id="YxIiZXSBLI5cnnB6mHRg-218" value="&lt;font style=&quot;font-size: 20px;&quot; face=&quot;Courier New&quot;&gt;r&lt;/font&gt;" style="text;html=1;strokeColor=none;fillColor=none;align=center;verticalAlign=middle;whiteSpace=wrap;rounded=0;movable=1;resizable=1;rotatable=1;deletable=1;editable=1;locked=0;connectable=1;container=0;" vertex="1" parent="YxIiZXSBLI5cnnB6mHRg-350">
          <mxGeometry x="798.608695652174" y="121.73913043478262" width="48.69565217391305" height="48.69565217391305" as="geometry" />
        </mxCell>
        <mxCell id="YxIiZXSBLI5cnnB6mHRg-219" value="&lt;font style=&quot;font-size: 20px;&quot; face=&quot;Courier New&quot;&gt;s&lt;/font&gt;" style="text;html=1;strokeColor=none;fillColor=none;align=center;verticalAlign=middle;whiteSpace=wrap;rounded=0;movable=1;resizable=1;rotatable=1;deletable=1;editable=1;locked=0;connectable=1;container=0;" vertex="1" parent="YxIiZXSBLI5cnnB6mHRg-350">
          <mxGeometry x="829.0434782608696" y="121.73913043478262" width="60.86956521739131" height="48.69565217391305" as="geometry" />
        </mxCell>
        <mxCell id="YxIiZXSBLI5cnnB6mHRg-220" value="&lt;font style=&quot;font-size: 20px;&quot; face=&quot;Courier New&quot;&gt;t&lt;/font&gt;" style="text;html=1;strokeColor=none;fillColor=none;align=center;verticalAlign=middle;whiteSpace=wrap;rounded=0;movable=1;resizable=1;rotatable=1;deletable=1;editable=1;locked=0;connectable=1;container=0;" vertex="1" parent="YxIiZXSBLI5cnnB6mHRg-350">
          <mxGeometry x="871.6521739130435" y="121.73913043478262" width="48.69565217391305" height="48.69565217391305" as="geometry" />
        </mxCell>
        <mxCell id="YxIiZXSBLI5cnnB6mHRg-221" value="&lt;font style=&quot;font-size: 20px;&quot; face=&quot;Courier New&quot;&gt;u&lt;/font&gt;" style="text;html=1;strokeColor=none;fillColor=none;align=center;verticalAlign=middle;whiteSpace=wrap;rounded=0;movable=1;resizable=1;rotatable=1;deletable=1;editable=1;locked=0;connectable=1;container=0;" vertex="1" parent="YxIiZXSBLI5cnnB6mHRg-350">
          <mxGeometry x="908.1739130434784" y="121.73913043478262" width="48.69565217391305" height="48.69565217391305" as="geometry" />
        </mxCell>
        <mxCell id="YxIiZXSBLI5cnnB6mHRg-222" value="&lt;font style=&quot;font-size: 20px;&quot; face=&quot;Courier New&quot;&gt;$$\alpha_3$$&lt;/font&gt;" style="text;html=1;strokeColor=none;fillColor=none;align=center;verticalAlign=middle;whiteSpace=wrap;rounded=0;movable=1;resizable=1;rotatable=1;deletable=1;editable=1;locked=0;connectable=1;container=0;" vertex="1" parent="YxIiZXSBLI5cnnB6mHRg-350">
          <mxGeometry x="573.3913043478261" y="12.173913043478262" width="36.52173913043478" height="48.69565217391305" as="geometry" />
        </mxCell>
        <mxCell id="YxIiZXSBLI5cnnB6mHRg-223" value="&lt;font style=&quot;font-size: 20px;&quot; face=&quot;Courier New&quot;&gt;$$\alpha_3$$&lt;/font&gt;" style="text;html=1;strokeColor=none;fillColor=none;align=center;verticalAlign=middle;whiteSpace=wrap;rounded=0;movable=1;resizable=1;rotatable=1;deletable=1;editable=1;locked=0;connectable=1;container=0;" vertex="1" parent="YxIiZXSBLI5cnnB6mHRg-350">
          <mxGeometry x="573.3913043478261" y="121.73913043478262" width="36.52173913043478" height="48.69565217391305" as="geometry" />
        </mxCell>
        <mxCell id="YxIiZXSBLI5cnnB6mHRg-224" value="&lt;font style=&quot;font-size: 20px;&quot; face=&quot;Courier New&quot;&gt;$$\alpha_2$$&lt;/font&gt;" style="text;html=1;strokeColor=none;fillColor=none;align=center;verticalAlign=middle;whiteSpace=wrap;rounded=0;movable=1;resizable=1;rotatable=1;deletable=1;editable=1;locked=0;connectable=1;container=0;" vertex="1" parent="YxIiZXSBLI5cnnB6mHRg-350">
          <mxGeometry x="573.3913043478261" y="66.95652173913044" width="36.52173913043478" height="48.69565217391305" as="geometry" />
        </mxCell>
        <mxCell id="YxIiZXSBLI5cnnB6mHRg-225" value="&lt;font style=&quot;font-size: 20px;&quot; face=&quot;Courier New&quot;&gt;$$\alpha_2$$&lt;/font&gt;" style="text;html=1;strokeColor=none;fillColor=none;align=center;verticalAlign=middle;whiteSpace=wrap;rounded=0;movable=1;resizable=1;rotatable=1;deletable=1;editable=1;locked=0;connectable=1;container=0;" vertex="1" parent="YxIiZXSBLI5cnnB6mHRg-350">
          <mxGeometry x="768.1739130434784" y="12.173913043478262" width="36.52173913043478" height="48.69565217391305" as="geometry" />
        </mxCell>
        <mxCell id="YxIiZXSBLI5cnnB6mHRg-226" value="&lt;font style=&quot;font-size: 20px;&quot; face=&quot;Courier New&quot;&gt;$$\alpha_2$$&lt;/font&gt;" style="text;html=1;strokeColor=none;fillColor=none;align=center;verticalAlign=middle;whiteSpace=wrap;rounded=0;movable=1;resizable=1;rotatable=1;deletable=1;editable=1;locked=0;connectable=1;container=0;" vertex="1" parent="YxIiZXSBLI5cnnB6mHRg-350">
          <mxGeometry x="768.1739130434784" y="121.73913043478262" width="36.52173913043478" height="48.69565217391305" as="geometry" />
        </mxCell>
        <mxCell id="YxIiZXSBLI5cnnB6mHRg-227" value="&lt;font style=&quot;font-size: 20px;&quot; face=&quot;Courier New&quot;&gt;$$\alpha_1$$&lt;/font&gt;" style="text;html=1;strokeColor=none;fillColor=none;align=center;verticalAlign=middle;whiteSpace=wrap;rounded=0;movable=1;resizable=1;rotatable=1;deletable=1;editable=1;locked=0;connectable=1;container=0;" vertex="1" parent="YxIiZXSBLI5cnnB6mHRg-350">
          <mxGeometry x="768.1739130434784" y="66.95652173913044" width="36.52173913043478" height="48.69565217391305" as="geometry" />
        </mxCell>
        <mxCell id="YxIiZXSBLI5cnnB6mHRg-228" value="" style="group;fillColor=#f8cecc;strokeColor=#b85450;container=0;movable=1;resizable=1;rotatable=1;deletable=1;editable=1;locked=0;connectable=1;" vertex="1" connectable="0" parent="YxIiZXSBLI5cnnB6mHRg-350">
          <mxGeometry x="999.4782608695652" y="73.04347826086956" width="146.08695652173913" height="36.52173913043478" as="geometry" />
        </mxCell>
        <mxCell id="YxIiZXSBLI5cnnB6mHRg-229" value="" style="rounded=0;whiteSpace=wrap;html=1;fillColor=#f8cecc;strokeColor=#b85450;shadow=1;container=0;movable=1;resizable=1;rotatable=1;deletable=1;editable=1;locked=0;connectable=1;" vertex="1" parent="YxIiZXSBLI5cnnB6mHRg-350">
          <mxGeometry x="999.4782608695652" y="73.04347826086956" width="36.52173913043478" height="36.52173913043478" as="geometry" />
        </mxCell>
        <mxCell id="YxIiZXSBLI5cnnB6mHRg-230" value="" style="rounded=0;whiteSpace=wrap;html=1;fillColor=#f8cecc;strokeColor=#b85450;shadow=1;container=0;movable=1;resizable=1;rotatable=1;deletable=1;editable=1;locked=0;connectable=1;" vertex="1" parent="YxIiZXSBLI5cnnB6mHRg-350">
          <mxGeometry x="1036" y="73.04347826086956" width="36.52173913043478" height="36.52173913043478" as="geometry" />
        </mxCell>
        <mxCell id="YxIiZXSBLI5cnnB6mHRg-231" value="" style="rounded=0;whiteSpace=wrap;html=1;fillColor=#f8cecc;strokeColor=#b85450;shadow=1;container=0;movable=1;resizable=1;rotatable=1;deletable=1;editable=1;locked=0;connectable=1;" vertex="1" parent="YxIiZXSBLI5cnnB6mHRg-350">
          <mxGeometry x="1072.5217391304348" y="73.04347826086956" width="36.52173913043478" height="36.52173913043478" as="geometry" />
        </mxCell>
        <mxCell id="YxIiZXSBLI5cnnB6mHRg-232" value="" style="rounded=0;whiteSpace=wrap;html=1;fillColor=#f8cecc;strokeColor=#b85450;shadow=1;container=0;movable=1;resizable=1;rotatable=1;deletable=1;editable=1;locked=0;connectable=1;" vertex="1" parent="YxIiZXSBLI5cnnB6mHRg-350">
          <mxGeometry x="1109.0434782608697" y="73.04347826086956" width="36.52173913043478" height="36.52173913043478" as="geometry" />
        </mxCell>
        <mxCell id="YxIiZXSBLI5cnnB6mHRg-233" value="" style="group;fillColor=#f8cecc;strokeColor=#b85450;container=0;movable=1;resizable=1;rotatable=1;deletable=1;editable=1;locked=0;connectable=1;" vertex="1" connectable="0" parent="YxIiZXSBLI5cnnB6mHRg-350">
          <mxGeometry x="999.4782608695652" y="18.26086956521739" width="146.08695652173913" height="36.52173913043478" as="geometry" />
        </mxCell>
        <mxCell id="YxIiZXSBLI5cnnB6mHRg-234" value="" style="group;fillColor=#f8cecc;strokeColor=#b85450;container=0;movable=1;resizable=1;rotatable=1;deletable=1;editable=1;locked=0;connectable=1;" vertex="1" connectable="0" parent="YxIiZXSBLI5cnnB6mHRg-350">
          <mxGeometry x="999.4782608695652" y="127.82608695652175" width="146.08695652173913" height="36.52173913043478" as="geometry" />
        </mxCell>
        <mxCell id="YxIiZXSBLI5cnnB6mHRg-235" value="" style="rounded=0;whiteSpace=wrap;html=1;fillColor=#f8cecc;strokeColor=#b85450;shadow=1;container=0;movable=1;resizable=1;rotatable=1;deletable=1;editable=1;locked=0;connectable=1;" vertex="1" parent="YxIiZXSBLI5cnnB6mHRg-350">
          <mxGeometry x="999.4782608695652" y="127.82608695652175" width="36.52173913043478" height="36.52173913043478" as="geometry" />
        </mxCell>
        <mxCell id="YxIiZXSBLI5cnnB6mHRg-236" value="" style="rounded=0;whiteSpace=wrap;html=1;fillColor=#f8cecc;strokeColor=#b85450;shadow=1;container=0;movable=1;resizable=1;rotatable=1;deletable=1;editable=1;locked=0;connectable=1;" vertex="1" parent="YxIiZXSBLI5cnnB6mHRg-350">
          <mxGeometry x="1036" y="127.82608695652175" width="36.52173913043478" height="36.52173913043478" as="geometry" />
        </mxCell>
        <mxCell id="YxIiZXSBLI5cnnB6mHRg-237" value="" style="rounded=0;whiteSpace=wrap;html=1;fillColor=#f8cecc;strokeColor=#b85450;shadow=1;container=0;movable=1;resizable=1;rotatable=1;deletable=1;editable=1;locked=0;connectable=1;" vertex="1" parent="YxIiZXSBLI5cnnB6mHRg-350">
          <mxGeometry x="1072.5217391304348" y="127.82608695652175" width="36.52173913043478" height="36.52173913043478" as="geometry" />
        </mxCell>
        <mxCell id="YxIiZXSBLI5cnnB6mHRg-238" value="" style="rounded=0;whiteSpace=wrap;html=1;fillColor=#f8cecc;strokeColor=#b85450;shadow=1;container=0;movable=1;resizable=1;rotatable=1;deletable=1;editable=1;locked=0;connectable=1;" vertex="1" parent="YxIiZXSBLI5cnnB6mHRg-350">
          <mxGeometry x="1109.0434782608697" y="127.82608695652175" width="36.52173913043478" height="36.52173913043478" as="geometry" />
        </mxCell>
        <mxCell id="YxIiZXSBLI5cnnB6mHRg-239" value="" style="rounded=0;whiteSpace=wrap;html=1;fillColor=#f8cecc;strokeColor=#b85450;shadow=1;container=0;movable=1;resizable=1;rotatable=1;deletable=1;editable=1;locked=0;connectable=1;" vertex="1" parent="YxIiZXSBLI5cnnB6mHRg-350">
          <mxGeometry x="999.4782608695652" y="18.26086956521739" width="36.52173913043478" height="36.52173913043478" as="geometry" />
        </mxCell>
        <mxCell id="YxIiZXSBLI5cnnB6mHRg-240" value="" style="rounded=0;whiteSpace=wrap;html=1;fillColor=#f8cecc;strokeColor=#b85450;shadow=1;container=0;movable=1;resizable=1;rotatable=1;deletable=1;editable=1;locked=0;connectable=1;" vertex="1" parent="YxIiZXSBLI5cnnB6mHRg-350">
          <mxGeometry x="1036" y="18.26086956521739" width="36.52173913043478" height="36.52173913043478" as="geometry" />
        </mxCell>
        <mxCell id="YxIiZXSBLI5cnnB6mHRg-241" value="" style="rounded=0;whiteSpace=wrap;html=1;fillColor=#f8cecc;strokeColor=#b85450;shadow=1;container=0;movable=1;resizable=1;rotatable=1;deletable=1;editable=1;locked=0;connectable=1;" vertex="1" parent="YxIiZXSBLI5cnnB6mHRg-350">
          <mxGeometry x="1072.5217391304348" y="18.26086956521739" width="36.52173913043478" height="36.52173913043478" as="geometry" />
        </mxCell>
        <mxCell id="YxIiZXSBLI5cnnB6mHRg-242" value="" style="rounded=0;whiteSpace=wrap;html=1;fillColor=#f8cecc;strokeColor=#b85450;shadow=1;container=0;movable=1;resizable=1;rotatable=1;deletable=1;editable=1;locked=0;connectable=1;" vertex="1" parent="YxIiZXSBLI5cnnB6mHRg-350">
          <mxGeometry x="1109.0434782608697" y="18.26086956521739" width="36.52173913043478" height="36.52173913043478" as="geometry" />
        </mxCell>
        <mxCell id="YxIiZXSBLI5cnnB6mHRg-243" value="&lt;font style=&quot;font-size: 20px;&quot; face=&quot;Courier New&quot;&gt;c&lt;/font&gt;" style="text;html=1;strokeColor=none;fillColor=none;align=center;verticalAlign=middle;whiteSpace=wrap;rounded=0;container=0;movable=1;resizable=1;rotatable=1;deletable=1;editable=1;locked=0;connectable=1;" vertex="1" parent="YxIiZXSBLI5cnnB6mHRg-350">
          <mxGeometry x="993.3913043478261" y="12.173913043478262" width="48.69565217391305" height="48.69565217391305" as="geometry" />
        </mxCell>
        <mxCell id="YxIiZXSBLI5cnnB6mHRg-244" value="&lt;font style=&quot;font-size: 20px;&quot; face=&quot;Courier New&quot;&gt;d&lt;/font&gt;" style="text;html=1;strokeColor=none;fillColor=none;align=center;verticalAlign=middle;whiteSpace=wrap;rounded=0;container=0;movable=1;resizable=1;rotatable=1;deletable=1;editable=1;locked=0;connectable=1;" vertex="1" parent="YxIiZXSBLI5cnnB6mHRg-350">
          <mxGeometry x="1029.913043478261" y="12.173913043478262" width="48.69565217391305" height="48.69565217391305" as="geometry" />
        </mxCell>
        <mxCell id="YxIiZXSBLI5cnnB6mHRg-245" value="&lt;font style=&quot;font-size: 20px;&quot; face=&quot;Courier New&quot;&gt;e&lt;/font&gt;" style="text;html=1;strokeColor=none;fillColor=none;align=center;verticalAlign=middle;whiteSpace=wrap;rounded=0;container=0;movable=1;resizable=1;rotatable=1;deletable=1;editable=1;locked=0;connectable=1;" vertex="1" parent="YxIiZXSBLI5cnnB6mHRg-350">
          <mxGeometry x="1066.4347826086957" y="12.173913043478262" width="48.69565217391305" height="48.69565217391305" as="geometry" />
        </mxCell>
        <mxCell id="YxIiZXSBLI5cnnB6mHRg-246" value="&lt;font style=&quot;font-size: 20px;&quot; face=&quot;Courier New&quot;&gt;f&lt;/font&gt;" style="text;html=1;strokeColor=none;fillColor=none;align=center;verticalAlign=middle;whiteSpace=wrap;rounded=0;container=0;movable=1;resizable=1;rotatable=1;deletable=1;editable=1;locked=0;connectable=1;" vertex="1" parent="YxIiZXSBLI5cnnB6mHRg-350">
          <mxGeometry x="1102.9565217391305" y="12.173913043478262" width="48.69565217391305" height="48.69565217391305" as="geometry" />
        </mxCell>
        <mxCell id="YxIiZXSBLI5cnnB6mHRg-247" value="&lt;font style=&quot;font-size: 20px;&quot; face=&quot;Courier New&quot;&gt;k&lt;/font&gt;" style="text;html=1;strokeColor=none;fillColor=none;align=center;verticalAlign=middle;whiteSpace=wrap;rounded=0;container=0;movable=1;resizable=1;rotatable=1;deletable=1;editable=1;locked=0;connectable=1;" vertex="1" parent="YxIiZXSBLI5cnnB6mHRg-350">
          <mxGeometry x="993.3913043478261" y="66.95652173913044" width="48.69565217391305" height="48.69565217391305" as="geometry" />
        </mxCell>
        <mxCell id="YxIiZXSBLI5cnnB6mHRg-248" value="&lt;font style=&quot;font-size: 20px;&quot; face=&quot;Courier New&quot;&gt;l&lt;/font&gt;" style="text;html=1;strokeColor=none;fillColor=none;align=center;verticalAlign=middle;whiteSpace=wrap;rounded=0;container=0;movable=1;resizable=1;rotatable=1;deletable=1;editable=1;locked=0;connectable=1;" vertex="1" parent="YxIiZXSBLI5cnnB6mHRg-350">
          <mxGeometry x="1029.913043478261" y="66.95652173913044" width="48.69565217391305" height="48.69565217391305" as="geometry" />
        </mxCell>
        <mxCell id="YxIiZXSBLI5cnnB6mHRg-249" value="&lt;font style=&quot;font-size: 20px;&quot; face=&quot;Courier New&quot;&gt;m&lt;/font&gt;" style="text;html=1;strokeColor=none;fillColor=none;align=center;verticalAlign=middle;whiteSpace=wrap;rounded=0;container=0;movable=1;resizable=1;rotatable=1;deletable=1;editable=1;locked=0;connectable=1;" vertex="1" parent="YxIiZXSBLI5cnnB6mHRg-350">
          <mxGeometry x="1066.4347826086957" y="66.95652173913044" width="48.69565217391305" height="48.69565217391305" as="geometry" />
        </mxCell>
        <mxCell id="YxIiZXSBLI5cnnB6mHRg-250" value="&lt;font style=&quot;font-size: 20px;&quot; face=&quot;Courier New&quot;&gt;n&lt;/font&gt;" style="text;html=1;strokeColor=none;fillColor=none;align=center;verticalAlign=middle;whiteSpace=wrap;rounded=0;container=0;movable=1;resizable=1;rotatable=1;deletable=1;editable=1;locked=0;connectable=1;" vertex="1" parent="YxIiZXSBLI5cnnB6mHRg-350">
          <mxGeometry x="1102.9565217391305" y="66.95652173913044" width="48.69565217391305" height="48.69565217391305" as="geometry" />
        </mxCell>
        <mxCell id="YxIiZXSBLI5cnnB6mHRg-251" value="&lt;font style=&quot;font-size: 20px;&quot; face=&quot;Courier New&quot;&gt;s&lt;/font&gt;" style="text;html=1;strokeColor=none;fillColor=none;align=center;verticalAlign=middle;whiteSpace=wrap;rounded=0;container=0;movable=1;resizable=1;rotatable=1;deletable=1;editable=1;locked=0;connectable=1;" vertex="1" parent="YxIiZXSBLI5cnnB6mHRg-350">
          <mxGeometry x="993.3913043478261" y="121.73913043478262" width="48.69565217391305" height="48.69565217391305" as="geometry" />
        </mxCell>
        <mxCell id="YxIiZXSBLI5cnnB6mHRg-252" value="&lt;font style=&quot;font-size: 20px;&quot; face=&quot;Courier New&quot;&gt;t&lt;/font&gt;" style="text;html=1;strokeColor=none;fillColor=none;align=center;verticalAlign=middle;whiteSpace=wrap;rounded=0;container=0;movable=1;resizable=1;rotatable=1;deletable=1;editable=1;locked=0;connectable=1;" vertex="1" parent="YxIiZXSBLI5cnnB6mHRg-350">
          <mxGeometry x="1029.913043478261" y="121.73913043478262" width="48.69565217391305" height="48.69565217391305" as="geometry" />
        </mxCell>
        <mxCell id="YxIiZXSBLI5cnnB6mHRg-253" value="&lt;font style=&quot;font-size: 20px;&quot; face=&quot;Courier New&quot;&gt;u&lt;/font&gt;" style="text;html=1;strokeColor=none;fillColor=none;align=center;verticalAlign=middle;whiteSpace=wrap;rounded=0;container=0;movable=1;resizable=1;rotatable=1;deletable=1;editable=1;locked=0;connectable=1;" vertex="1" parent="YxIiZXSBLI5cnnB6mHRg-350">
          <mxGeometry x="1066.4347826086957" y="121.73913043478262" width="48.69565217391305" height="48.69565217391305" as="geometry" />
        </mxCell>
        <mxCell id="YxIiZXSBLI5cnnB6mHRg-254" value="&lt;font style=&quot;font-size: 20px;&quot; face=&quot;Courier New&quot;&gt;v&lt;/font&gt;" style="text;html=1;strokeColor=none;fillColor=none;align=center;verticalAlign=middle;whiteSpace=wrap;rounded=0;container=0;movable=1;resizable=1;rotatable=1;deletable=1;editable=1;locked=0;connectable=1;" vertex="1" parent="YxIiZXSBLI5cnnB6mHRg-350">
          <mxGeometry x="1102.9565217391305" y="121.73913043478262" width="48.69565217391305" height="48.69565217391305" as="geometry" />
        </mxCell>
        <mxCell id="YxIiZXSBLI5cnnB6mHRg-255" value="&lt;font style=&quot;font-size: 20px;&quot; face=&quot;Courier New&quot;&gt;$$\alpha_2$$&lt;/font&gt;" style="text;html=1;strokeColor=none;fillColor=none;align=center;verticalAlign=middle;whiteSpace=wrap;rounded=0;container=0;movable=1;resizable=1;rotatable=1;deletable=1;editable=1;locked=0;connectable=1;" vertex="1" parent="YxIiZXSBLI5cnnB6mHRg-350">
          <mxGeometry x="962.9565217391305" y="66.95652173913044" width="36.52173913043478" height="48.69565217391305" as="geometry" />
        </mxCell>
        <mxCell id="YxIiZXSBLI5cnnB6mHRg-256" value="&lt;font style=&quot;font-size: 20px;&quot; face=&quot;Courier New&quot;&gt;$$\alpha_3$$&lt;/font&gt;" style="text;html=1;strokeColor=none;fillColor=none;align=center;verticalAlign=middle;whiteSpace=wrap;rounded=0;container=0;movable=1;resizable=1;rotatable=1;deletable=1;editable=1;locked=0;connectable=1;" vertex="1" parent="YxIiZXSBLI5cnnB6mHRg-350">
          <mxGeometry x="962.9565217391305" y="121.73913043478262" width="36.52173913043478" height="48.69565217391305" as="geometry" />
        </mxCell>
        <mxCell id="YxIiZXSBLI5cnnB6mHRg-257" value="&lt;font style=&quot;font-size: 20px;&quot; face=&quot;Courier New&quot;&gt;$$\alpha_3$$&lt;/font&gt;" style="text;html=1;strokeColor=none;fillColor=none;align=center;verticalAlign=middle;whiteSpace=wrap;rounded=0;container=0;movable=1;resizable=1;rotatable=1;deletable=1;editable=1;locked=0;connectable=1;" vertex="1" parent="YxIiZXSBLI5cnnB6mHRg-350">
          <mxGeometry x="962.9565217391305" y="12.173913043478262" width="36.52173913043478" height="48.69565217391305" as="geometry" />
        </mxCell>
        <mxCell id="YxIiZXSBLI5cnnB6mHRg-258" value="" style="rounded=0;whiteSpace=wrap;html=1;fillColor=none;dashed=1;strokeColor=#b85450;strokeWidth=2;movable=1;resizable=1;rotatable=1;deletable=1;editable=1;locked=0;connectable=1;container=0;" vertex="1" parent="YxIiZXSBLI5cnnB6mHRg-350">
          <mxGeometry x="570.3478260869565" y="12.173913043478262" width="584.3478260869565" height="158.2608695652174" as="geometry" />
        </mxCell>
        <mxCell id="YxIiZXSBLI5cnnB6mHRg-206" value="" style="rounded=0;whiteSpace=wrap;html=1;fillColor=#dae8fc;strokeColor=#6c8ebf;shadow=1;container=0;movable=1;resizable=1;rotatable=1;deletable=1;editable=1;locked=0;connectable=1;" vertex="1" parent="YxIiZXSBLI5cnnB6mHRg-350">
          <mxGeometry x="804.6956521739131" y="73.04347826086956" width="36.52173913043478" height="36.52173913043478" as="geometry" />
        </mxCell>
        <mxCell id="YxIiZXSBLI5cnnB6mHRg-207" value="" style="rounded=0;whiteSpace=wrap;html=1;fillColor=#dae8fc;strokeColor=#6c8ebf;shadow=1;container=0;movable=1;resizable=1;rotatable=1;deletable=1;editable=1;locked=0;connectable=1;" vertex="1" parent="YxIiZXSBLI5cnnB6mHRg-350">
          <mxGeometry x="841.2173913043479" y="73.04347826086956" width="36.52173913043478" height="36.52173913043478" as="geometry" />
        </mxCell>
        <mxCell id="YxIiZXSBLI5cnnB6mHRg-208" value="" style="rounded=0;whiteSpace=wrap;html=1;fillColor=#dae8fc;strokeColor=#6c8ebf;shadow=1;container=0;movable=1;resizable=1;rotatable=1;deletable=1;editable=1;locked=0;connectable=1;" vertex="1" parent="YxIiZXSBLI5cnnB6mHRg-350">
          <mxGeometry x="877.7391304347826" y="73.04347826086956" width="36.52173913043478" height="36.52173913043478" as="geometry" />
        </mxCell>
        <mxCell id="YxIiZXSBLI5cnnB6mHRg-209" value="" style="rounded=0;whiteSpace=wrap;html=1;fillColor=#dae8fc;strokeColor=#6c8ebf;shadow=1;container=0;movable=1;resizable=1;rotatable=1;deletable=1;editable=1;locked=0;connectable=1;" vertex="1" parent="YxIiZXSBLI5cnnB6mHRg-350">
          <mxGeometry x="914.2608695652175" y="73.04347826086956" width="36.52173913043478" height="36.52173913043478" as="geometry" />
        </mxCell>
        <mxCell id="YxIiZXSBLI5cnnB6mHRg-210" value="&lt;font style=&quot;font-size: 20px;&quot; face=&quot;Courier New&quot;&gt;j&lt;/font&gt;" style="text;html=1;strokeColor=none;fillColor=none;align=center;verticalAlign=middle;whiteSpace=wrap;rounded=0;movable=1;resizable=1;rotatable=1;deletable=1;editable=1;locked=0;connectable=1;container=0;" vertex="1" parent="YxIiZXSBLI5cnnB6mHRg-350">
          <mxGeometry x="798.608695652174" y="66.95652173913044" width="48.69565217391305" height="48.69565217391305" as="geometry" />
        </mxCell>
        <mxCell id="YxIiZXSBLI5cnnB6mHRg-211" value="&lt;font style=&quot;font-size: 20px;&quot; face=&quot;Courier New&quot;&gt;k&lt;/font&gt;" style="text;html=1;strokeColor=none;fillColor=none;align=center;verticalAlign=middle;whiteSpace=wrap;rounded=0;movable=1;resizable=1;rotatable=1;deletable=1;editable=1;locked=0;connectable=1;container=0;" vertex="1" parent="YxIiZXSBLI5cnnB6mHRg-350">
          <mxGeometry x="835.1304347826087" y="66.95652173913044" width="48.69565217391305" height="48.69565217391305" as="geometry" />
        </mxCell>
        <mxCell id="YxIiZXSBLI5cnnB6mHRg-212" value="&lt;font style=&quot;font-size: 20px;&quot; face=&quot;Courier New&quot;&gt;l&lt;/font&gt;" style="text;html=1;strokeColor=none;fillColor=none;align=center;verticalAlign=middle;whiteSpace=wrap;rounded=0;movable=1;resizable=1;rotatable=1;deletable=1;editable=1;locked=0;connectable=1;container=0;" vertex="1" parent="YxIiZXSBLI5cnnB6mHRg-350">
          <mxGeometry x="871.6521739130435" y="66.95652173913044" width="48.69565217391305" height="48.69565217391305" as="geometry" />
        </mxCell>
        <mxCell id="YxIiZXSBLI5cnnB6mHRg-213" value="&lt;font style=&quot;font-size: 20px;&quot; face=&quot;Courier New&quot;&gt;m&lt;/font&gt;" style="text;html=1;strokeColor=none;fillColor=none;align=center;verticalAlign=middle;whiteSpace=wrap;rounded=0;movable=1;resizable=1;rotatable=1;deletable=1;editable=1;locked=0;connectable=1;container=0;" vertex="1" parent="YxIiZXSBLI5cnnB6mHRg-350">
          <mxGeometry x="908.1739130434784" y="66.95652173913044" width="48.69565217391305" height="48.69565217391305" as="geometry" />
        </mxCell>
        <mxCell id="YxIiZXSBLI5cnnB6mHRg-261" value="&lt;font style=&quot;font-size: 20px;&quot; face=&quot;Courier New&quot;&gt;$$\beta_1$$&lt;/font&gt;" style="text;html=1;strokeColor=none;fillColor=none;align=center;verticalAlign=middle;whiteSpace=wrap;rounded=0;movable=1;resizable=1;rotatable=1;deletable=1;editable=1;locked=0;connectable=1;container=0;" vertex="1" parent="YxIiZXSBLI5cnnB6mHRg-350">
          <mxGeometry x="769.3913043478261" y="231.30434782608697" width="36.52173913043478" height="48.69565217391305" as="geometry" />
        </mxCell>
        <mxCell id="YxIiZXSBLI5cnnB6mHRg-262" value="" style="group;fillColor=#dae8fc;strokeColor=#6c8ebf;container=0;movable=1;resizable=1;rotatable=1;deletable=1;editable=1;locked=0;connectable=1;" vertex="1" connectable="0" parent="YxIiZXSBLI5cnnB6mHRg-350">
          <mxGeometry x="807.1304347826087" y="237.3913043478261" width="152.17391304347828" height="42.608695652173914" as="geometry" />
        </mxCell>
        <mxCell id="YxIiZXSBLI5cnnB6mHRg-263" value="" style="rounded=0;whiteSpace=wrap;html=1;fillColor=#dae8fc;strokeColor=#6c8ebf;shadow=1;container=0;movable=1;resizable=1;rotatable=1;deletable=1;editable=1;locked=0;connectable=1;" vertex="1" parent="YxIiZXSBLI5cnnB6mHRg-350">
          <mxGeometry x="807.1304347826087" y="237.3913043478261" width="36.52173913043478" height="36.52173913043478" as="geometry" />
        </mxCell>
        <mxCell id="YxIiZXSBLI5cnnB6mHRg-264" value="" style="rounded=0;whiteSpace=wrap;html=1;fillColor=#dae8fc;strokeColor=#6c8ebf;shadow=1;container=0;movable=1;resizable=1;rotatable=1;deletable=1;editable=1;locked=0;connectable=1;" vertex="1" parent="YxIiZXSBLI5cnnB6mHRg-350">
          <mxGeometry x="843.6521739130435" y="237.3913043478261" width="36.52173913043478" height="36.52173913043478" as="geometry" />
        </mxCell>
        <mxCell id="YxIiZXSBLI5cnnB6mHRg-265" value="" style="rounded=0;whiteSpace=wrap;html=1;fillColor=#dae8fc;strokeColor=#6c8ebf;shadow=1;container=0;movable=1;resizable=1;rotatable=1;deletable=1;editable=1;locked=0;connectable=1;" vertex="1" parent="YxIiZXSBLI5cnnB6mHRg-350">
          <mxGeometry x="880.1739130434784" y="237.3913043478261" width="36.52173913043478" height="36.52173913043478" as="geometry" />
        </mxCell>
        <mxCell id="YxIiZXSBLI5cnnB6mHRg-266" value="" style="rounded=0;whiteSpace=wrap;html=1;fillColor=#dae8fc;strokeColor=#6c8ebf;shadow=1;container=0;movable=1;resizable=1;rotatable=1;deletable=1;editable=1;locked=0;connectable=1;" vertex="1" parent="YxIiZXSBLI5cnnB6mHRg-350">
          <mxGeometry x="916.6956521739131" y="237.3913043478261" width="36.52173913043478" height="36.52173913043478" as="geometry" />
        </mxCell>
        <mxCell id="YxIiZXSBLI5cnnB6mHRg-267" value="&lt;font style=&quot;font-size: 20px;&quot; face=&quot;Courier New&quot;&gt;L&lt;/font&gt;" style="text;html=1;strokeColor=none;fillColor=none;align=center;verticalAlign=middle;whiteSpace=wrap;rounded=0;movable=1;resizable=1;rotatable=1;deletable=1;editable=1;locked=0;connectable=1;container=0;" vertex="1" parent="YxIiZXSBLI5cnnB6mHRg-350">
          <mxGeometry x="874.0869565217392" y="231.30434782608697" width="48.69565217391305" height="48.69565217391305" as="geometry" />
        </mxCell>
        <mxCell id="YxIiZXSBLI5cnnB6mHRg-268" value="&lt;font style=&quot;font-size: 20px;&quot; face=&quot;Courier New&quot;&gt;J&lt;/font&gt;" style="text;html=1;strokeColor=none;fillColor=none;align=center;verticalAlign=middle;whiteSpace=wrap;rounded=0;movable=1;resizable=1;rotatable=1;deletable=1;editable=1;locked=0;connectable=1;container=0;" vertex="1" parent="YxIiZXSBLI5cnnB6mHRg-350">
          <mxGeometry x="801.0434782608696" y="231.30434782608697" width="48.69565217391305" height="48.69565217391305" as="geometry" />
        </mxCell>
        <mxCell id="YxIiZXSBLI5cnnB6mHRg-269" value="&lt;font style=&quot;font-size: 20px;&quot; face=&quot;Courier New&quot;&gt;K&lt;/font&gt;" style="text;html=1;strokeColor=none;fillColor=none;align=center;verticalAlign=middle;whiteSpace=wrap;rounded=0;movable=1;resizable=1;rotatable=1;deletable=1;editable=1;locked=0;connectable=1;container=0;" vertex="1" parent="YxIiZXSBLI5cnnB6mHRg-350">
          <mxGeometry x="837.5652173913044" y="231.30434782608697" width="48.69565217391305" height="48.69565217391305" as="geometry" />
        </mxCell>
        <mxCell id="YxIiZXSBLI5cnnB6mHRg-270" value="&lt;font face=&quot;Courier New&quot;&gt;&lt;span style=&quot;font-size: 20px;&quot;&gt;M&lt;/span&gt;&lt;/font&gt;" style="text;html=1;strokeColor=none;fillColor=none;align=center;verticalAlign=middle;whiteSpace=wrap;rounded=0;movable=1;resizable=1;rotatable=1;deletable=1;editable=1;locked=0;connectable=1;container=0;" vertex="1" parent="YxIiZXSBLI5cnnB6mHRg-350">
          <mxGeometry x="910.608695652174" y="231.30434782608697" width="48.69565217391305" height="48.69565217391305" as="geometry" />
        </mxCell>
        <mxCell id="YxIiZXSBLI5cnnB6mHRg-279" value="" style="group;fillColor=#dae8fc;strokeColor=#6c8ebf;movable=1;resizable=1;rotatable=1;deletable=1;editable=1;locked=0;connectable=1;container=0;" vertex="1" connectable="0" parent="YxIiZXSBLI5cnnB6mHRg-350">
          <mxGeometry x="1242.3478260869565" y="237.3913043478261" width="152.17391304347828" height="42.608695652173914" as="geometry" />
        </mxCell>
        <mxCell id="YxIiZXSBLI5cnnB6mHRg-288" value="&lt;font style=&quot;font-size: 20px;&quot; face=&quot;Courier New&quot;&gt;$$\beta_2$$&lt;/font&gt;" style="text;html=1;strokeColor=none;fillColor=none;align=center;verticalAlign=middle;whiteSpace=wrap;rounded=0;movable=1;resizable=1;rotatable=1;deletable=1;editable=1;locked=0;connectable=1;container=0;" vertex="1" parent="YxIiZXSBLI5cnnB6mHRg-350">
          <mxGeometry x="1205.8260869565217" y="231.30434782608697" width="36.52173913043478" height="48.69565217391305" as="geometry" />
        </mxCell>
        <mxCell id="YxIiZXSBLI5cnnB6mHRg-289" value="" style="rounded=0;whiteSpace=wrap;html=1;fillColor=none;strokeColor=#6c8ebf;dashed=1;strokeWidth=2;movable=1;resizable=1;rotatable=1;deletable=1;editable=1;locked=0;connectable=1;container=0;" vertex="1" parent="YxIiZXSBLI5cnnB6mHRg-350">
          <mxGeometry x="1205.8260869565217" y="231.30434782608697" width="194.7826086956522" height="48.69565217391305" as="geometry" />
        </mxCell>
        <mxCell id="YxIiZXSBLI5cnnB6mHRg-280" value="" style="rounded=0;whiteSpace=wrap;html=1;fillColor=#dae8fc;strokeColor=#6c8ebf;shadow=1;container=0;movable=1;resizable=1;rotatable=1;deletable=1;editable=1;locked=0;connectable=1;" vertex="1" parent="YxIiZXSBLI5cnnB6mHRg-350">
          <mxGeometry x="1242.3478260869565" y="237.3913043478261" width="36.52173913043478" height="36.52173913043478" as="geometry" />
        </mxCell>
        <mxCell id="YxIiZXSBLI5cnnB6mHRg-281" value="" style="rounded=0;whiteSpace=wrap;html=1;fillColor=#dae8fc;strokeColor=#6c8ebf;shadow=1;container=0;movable=1;resizable=1;rotatable=1;deletable=1;editable=1;locked=0;connectable=1;" vertex="1" parent="YxIiZXSBLI5cnnB6mHRg-350">
          <mxGeometry x="1278.8695652173915" y="237.3913043478261" width="36.52173913043478" height="36.52173913043478" as="geometry" />
        </mxCell>
        <mxCell id="YxIiZXSBLI5cnnB6mHRg-282" value="" style="rounded=0;whiteSpace=wrap;html=1;fillColor=#dae8fc;strokeColor=#6c8ebf;shadow=1;container=0;movable=1;resizable=1;rotatable=1;deletable=1;editable=1;locked=0;connectable=1;" vertex="1" parent="YxIiZXSBLI5cnnB6mHRg-350">
          <mxGeometry x="1315.3913043478262" y="237.3913043478261" width="36.52173913043478" height="36.52173913043478" as="geometry" />
        </mxCell>
        <mxCell id="YxIiZXSBLI5cnnB6mHRg-283" value="" style="rounded=0;whiteSpace=wrap;html=1;fillColor=#dae8fc;strokeColor=#6c8ebf;shadow=1;container=0;movable=1;resizable=1;rotatable=1;deletable=1;editable=1;locked=0;connectable=1;" vertex="1" parent="YxIiZXSBLI5cnnB6mHRg-350">
          <mxGeometry x="1351.913043478261" y="237.3913043478261" width="36.52173913043478" height="36.52173913043478" as="geometry" />
        </mxCell>
        <mxCell id="YxIiZXSBLI5cnnB6mHRg-284" value="&lt;font style=&quot;font-size: 20px;&quot; face=&quot;Courier New&quot;&gt;j&lt;/font&gt;" style="text;html=1;strokeColor=none;fillColor=none;align=center;verticalAlign=middle;whiteSpace=wrap;rounded=0;movable=1;resizable=1;rotatable=1;deletable=1;editable=1;locked=0;connectable=1;container=0;" vertex="1" parent="YxIiZXSBLI5cnnB6mHRg-350">
          <mxGeometry x="1236.2608695652175" y="231.30434782608697" width="48.69565217391305" height="48.69565217391305" as="geometry" />
        </mxCell>
        <mxCell id="YxIiZXSBLI5cnnB6mHRg-285" value="&lt;font style=&quot;font-size: 20px;&quot; face=&quot;Courier New&quot;&gt;k&lt;/font&gt;" style="text;html=1;strokeColor=none;fillColor=none;align=center;verticalAlign=middle;whiteSpace=wrap;rounded=0;movable=1;resizable=1;rotatable=1;deletable=1;editable=1;locked=0;connectable=1;container=0;" vertex="1" parent="YxIiZXSBLI5cnnB6mHRg-350">
          <mxGeometry x="1272.7826086956522" y="231.30434782608697" width="48.69565217391305" height="48.69565217391305" as="geometry" />
        </mxCell>
        <mxCell id="YxIiZXSBLI5cnnB6mHRg-286" value="&lt;font style=&quot;font-size: 20px;&quot; face=&quot;Courier New&quot;&gt;l&lt;/font&gt;" style="text;html=1;strokeColor=none;fillColor=none;align=center;verticalAlign=middle;whiteSpace=wrap;rounded=0;movable=1;resizable=1;rotatable=1;deletable=1;editable=1;locked=0;connectable=1;container=0;" vertex="1" parent="YxIiZXSBLI5cnnB6mHRg-350">
          <mxGeometry x="1309.304347826087" y="231.30434782608697" width="48.69565217391305" height="48.69565217391305" as="geometry" />
        </mxCell>
        <mxCell id="YxIiZXSBLI5cnnB6mHRg-287" value="&lt;font style=&quot;font-size: 20px;&quot; face=&quot;Courier New&quot;&gt;m&lt;/font&gt;" style="text;html=1;strokeColor=none;fillColor=none;align=center;verticalAlign=middle;whiteSpace=wrap;rounded=0;movable=1;resizable=1;rotatable=1;deletable=1;editable=1;locked=0;connectable=1;container=0;" vertex="1" parent="YxIiZXSBLI5cnnB6mHRg-350">
          <mxGeometry x="1345.8260869565217" y="231.30434782608697" width="48.69565217391305" height="48.69565217391305" as="geometry" />
        </mxCell>
        <mxCell id="YxIiZXSBLI5cnnB6mHRg-291" value="&lt;span style=&quot;font-size: 20px;&quot;&gt;&lt;font face=&quot;Courier New&quot;&gt;$$\mathcal{J}$$&lt;/font&gt;&lt;/span&gt;" style="rounded=0;whiteSpace=wrap;html=1;fillColor=#dae8fc;strokeColor=#6c8ebf;shadow=1;container=0;movable=1;resizable=1;rotatable=1;deletable=1;editable=1;locked=0;connectable=1;" vertex="1" parent="YxIiZXSBLI5cnnB6mHRg-350">
          <mxGeometry x="1345.217391304348" y="73.04347826086956" width="36.52173913043478" height="41.39130434782609" as="geometry" />
        </mxCell>
        <mxCell id="YxIiZXSBLI5cnnB6mHRg-292" value="&lt;span style=&quot;font-size: 20px;&quot;&gt;&lt;font face=&quot;Courier New&quot;&gt;$$\mathcal{K}$$&lt;/font&gt;&lt;/span&gt;" style="rounded=0;whiteSpace=wrap;html=1;fillColor=#dae8fc;strokeColor=#6c8ebf;shadow=1;container=0;movable=1;resizable=1;rotatable=1;deletable=1;editable=1;locked=0;connectable=1;" vertex="1" parent="YxIiZXSBLI5cnnB6mHRg-350">
          <mxGeometry x="1380.521739130435" y="73.04347826086956" width="36.52173913043478" height="41.39130434782609" as="geometry" />
        </mxCell>
        <mxCell id="YxIiZXSBLI5cnnB6mHRg-293" value="&lt;span style=&quot;font-size: 20px;&quot;&gt;&lt;font face=&quot;Courier New&quot;&gt;$$\mathcal{L}$$&lt;/font&gt;&lt;/span&gt;" style="rounded=0;whiteSpace=wrap;html=1;fillColor=#dae8fc;strokeColor=#6c8ebf;shadow=1;container=0;movable=1;resizable=1;rotatable=1;deletable=1;editable=1;locked=0;connectable=1;" vertex="1" parent="YxIiZXSBLI5cnnB6mHRg-350">
          <mxGeometry x="1417.0434782608697" y="73.04347826086956" width="36.52173913043478" height="41.39130434782609" as="geometry" />
        </mxCell>
        <mxCell id="YxIiZXSBLI5cnnB6mHRg-294" value="&lt;span style=&quot;font-size: 20px;&quot;&gt;&lt;font face=&quot;Courier New&quot;&gt;$$\mathcal{M}$$&lt;/font&gt;&lt;/span&gt;" style="rounded=0;whiteSpace=wrap;html=1;fillColor=#dae8fc;strokeColor=#6c8ebf;shadow=1;container=0;movable=1;resizable=1;rotatable=1;deletable=1;editable=1;locked=0;connectable=1;" vertex="1" parent="YxIiZXSBLI5cnnB6mHRg-350">
          <mxGeometry x="1453.5652173913045" y="73.04347826086956" width="36.52173913043478" height="41.39130434782609" as="geometry" />
        </mxCell>
      </root>
    </mxGraphModel>
  </diagram>
</mxfile>
